MozillaHeadline-ExpandedBold.ufo
<glyph name="dollar" format="1">
  <advance width="732"/>
  <unicode hex="0024"/>
  <outline>
    <contour>
      <point x="368" y="-4" type="curve" smooth="yes"/>
      <point x="575" y="-4"/>
      <point x="692" y="73"/>
      <point x="692" y="212" type="curve" smooth="yes"/>
      <point x="692" y="318"/>
      <point x="625" y="377"/>
      <point x="477" y="399" type="curve" smooth="yes"/>
      <point x="305" y="425" type="line" smooth="yes"/>
      <point x="235" y="436"/>
      <point x="208" y="455"/>
      <point x="208" y="493" type="curve" smooth="yes"/>
      <point x="208" y="493" type="line" smooth="yes"/>
      <point x="208" y="548"/>
      <point x="263" y="576"/>
      <point x="364" y="576" type="curve" smooth="yes"/>
      <point x="478" y="576"/>
      <point x="529" y="530"/>
      <point x="529" y="448" type="curve" smooth="yes"/>
      <point x="529" y="448" type="line"/>
      <point x="690" y="448" type="line"/>
      <point x="666" y="619"/>
      <point x="562" y="694"/>
      <point x="364" y="694" type="curve" smooth="yes"/>
      <point x="160" y="694"/>
      <point x="44" y="617"/>
      <point x="44" y="478" type="curve" smooth="yes"/>
      <point x="44" y="373"/>
      <point x="109" y="313"/>
      <point x="257" y="291" type="curve" smooth="yes"/>
      <point x="429" y="265" type="line" smooth="yes"/>
      <point x="500" y="254"/>
      <point x="528" y="235"/>
      <point x="528" y="197" type="curve" smooth="yes"/>
      <point x="528" y="197" type="line" smooth="yes"/>
      <point x="528" y="144"/>
      <point x="470" y="114"/>
      <point x="368" y="114" type="curve" smooth="yes"/>
      <point x="251" y="114"/>
      <point x="200" y="159"/>
      <point x="200" y="242" type="curve" smooth="yes"/>
      <point x="200" y="242" type="line"/>
      <point x="37" y="242" type="line"/>
      <point x="61" y="71"/>
      <point x="167" y="-4"/>
    </contour>
    <contour>
      <point x="310" y="-92" type="line"/>
      <point x="426" y="-92" type="line"/>
      <point x="426" y="24" type="line"/>
      <point x="310" y="24" type="line"/>
    </contour>
    <contour>
      <point x="306" y="652" type="line"/>
      <point x="422" y="652" type="line"/>
      <point x="422" y="782" type="line"/>
      <point x="306" y="782" type="line"/>
    </contour>
  </outline>
</glyph>
<glyph name="quotesingle" format="1">
  <advance width="241"/>
  <unicode hex="0027"/>
  <outline>
    <contour>
      <point x="86" y="427" type="line"/>
      <point x="154" y="427" type="line"/>
      <point x="200" y="615" type="line"/>
      <point x="200" y="690" type="line"/>
      <point x="40" y="690" type="line"/>
      <point x="40" y="615" type="line"/>
    </contour>
  </outline>
</glyph>
<glyph name="zero" format="1">
  <advance width="782"/>
  <unicode hex="0030"/>
  <outline>
    <contour>
      <point x="391" y="-10" type="curve" smooth="yes"/>
      <point x="612" y="-10"/>
      <point x="734" y="116"/>
      <point x="734" y="345" type="curve" smooth="yes"/>
      <point x="734" y="574"/>
      <point x="612" y="700"/>
      <point x="391" y="700" type="curve" smooth="yes"/>
      <point x="170" y="700"/>
      <point x="48" y="574"/>
      <point x="48" y="345" type="curve" smooth="yes"/>
      <point x="48" y="116"/>
      <point x="170" y="-10"/>
    </contour>
    <contour>
      <point x="391" y="106" type="curve" smooth="yes"/>
      <point x="269" y="106"/>
      <point x="215" y="171"/>
      <point x="215" y="316" type="curve" smooth="yes"/>
      <point x="215" y="374" type="line" smooth="yes"/>
      <point x="215" y="519"/>
      <point x="269" y="584"/>
      <point x="391" y="584" type="curve" smooth="yes"/>
      <point x="513" y="584"/>
      <point x="567" y="519"/>
      <point x="567" y="374" type="curve" smooth="yes"/>
      <point x="567" y="316" type="line" smooth="yes"/>
      <point x="567" y="171"/>
      <point x="513" y="106"/>
    </contour>
    <contour>
      <point x="169" y="105" type="line"/>
      <point x="289" y="103" type="line"/>
      <point x="613" y="585" type="line"/>
      <point x="493" y="587" type="line"/>
    </contour>
  </outline>
</glyph>
<glyph name="two" format="1">
  <advance width="725"/>
  <unicode hex="0032"/>
  <outline>
    <contour>
      <point x="51" y="144" type="curve" smooth="yes"/>
      <point x="51" y="0" type="line"/>
      <point x="665" y="0" type="line"/>
      <point x="665" y="211" type="line"/>
      <point x="532" y="211" type="line"/>
      <point x="532" y="116" type="line"/>
      <point x="135" y="116" type="line"/>
      <point x="212" y="43" type="line"/>
      <point x="212" y="137" type="line" smooth="yes"/>
      <point x="212" y="203"/>
      <point x="240" y="234"/>
      <point x="315" y="252" type="curve" smooth="yes"/>
      <point x="459" y="284" type="line" smooth="yes"/>
      <point x="607" y="316"/>
      <point x="673" y="379"/>
      <point x="673" y="487" type="curve" smooth="yes"/>
      <point x="673" y="487" type="line" smooth="yes"/>
      <point x="673" y="616"/>
      <point x="557" y="700"/>
      <point x="367" y="700" type="curve" smooth="yes"/>
      <point x="182" y="700"/>
      <point x="78" y="621"/>
      <point x="54" y="448" type="curve"/>
      <point x="214" y="448" type="line"/>
      <point x="214" y="448" type="line" smooth="yes"/>
      <point x="214" y="533"/>
      <point x="266" y="580"/>
      <point x="367" y="580" type="curve" smooth="yes"/>
      <point x="453" y="580"/>
      <point x="509" y="547"/>
      <point x="509" y="490" type="curve" smooth="yes"/>
      <point x="509" y="490" type="line" smooth="yes"/>
      <point x="509" y="445"/>
      <point x="482" y="422"/>
      <point x="411" y="406" type="curve" smooth="yes"/>
      <point x="267" y="374" type="line" smooth="yes"/>
      <point x="118" y="342"/>
      <point x="51" y="270"/>
    </contour>
  </outline>
</glyph>
<glyph name="eight" format="1">
  <advance width="742"/>
  <unicode hex="0038"/>
  <outline>
    <contour>
      <point x="371" y="-10" type="curve" smooth="yes"/>
      <point x="568" y="-10"/>
      <point x="692" y="67"/>
      <point x="692" y="190" type="curve" smooth="yes"/>
      <point x="692" y="276"/>
      <point x="641" y="326"/>
      <point x="548" y="333" type="curve"/>
      <point x="548" y="371" type="line"/>
      <point x="636" y="378"/>
      <point x="684" y="425"/>
      <point x="684" y="507" type="curve" smooth="yes"/>
      <point x="684" y="626"/>
      <point x="563" y="700"/>
      <point x="371" y="700" type="curve" smooth="yes"/>
      <point x="179" y="700"/>
      <point x="58" y="626"/>
      <point x="58" y="507" type="curve" smooth="yes"/>
      <point x="58" y="425"/>
      <point x="106" y="378"/>
      <point x="194" y="371" type="curve"/>
      <point x="194" y="333" type="line"/>
      <point x="101" y="326"/>
      <point x="50" y="276"/>
      <point x="50" y="190" type="curve" smooth="yes"/>
      <point x="50" y="67"/>
      <point x="174" y="-10"/>
    </contour>
    <contour>
      <point x="371" y="109" type="curve" smooth="yes"/>
      <point x="270" y="109"/>
      <point x="217" y="143"/>
      <point x="217" y="205" type="curve" smooth="yes"/>
      <point x="217" y="206" type="line" smooth="yes"/>
      <point x="217" y="268"/>
      <point x="270" y="301"/>
      <point x="371" y="301" type="curve" smooth="yes"/>
      <point x="472" y="301"/>
      <point x="525" y="268"/>
      <point x="525" y="206" type="curve" smooth="yes"/>
      <point x="525" y="205" type="line" smooth="yes"/>
      <point x="525" y="143"/>
      <point x="472" y="109"/>
    </contour>
    <contour>
      <point x="371" y="403" type="curve" smooth="yes"/>
      <point x="276" y="403"/>
      <point x="225" y="434"/>
      <point x="225" y="491" type="curve" smooth="yes"/>
      <point x="225" y="492" type="line" smooth="yes"/>
      <point x="225" y="549"/>
      <point x="276" y="581"/>
      <point x="371" y="581" type="curve" smooth="yes"/>
      <point x="466" y="581"/>
      <point x="517" y="549"/>
      <point x="517" y="492" type="curve" smooth="yes"/>
      <point x="517" y="491" type="line" smooth="yes"/>
      <point x="517" y="434"/>
      <point x="466" y="403"/>
    </contour>
  </outline>
</glyph>
<glyph name="less" format="1">
  <advance width="532"/>
  <unicode hex="003C"/>
  <outline>
    <contour>
      <point x="503" y="586" type="line"/>
      <point x="24" y="425" type="line"/>
      <point x="24" y="249" type="line"/>
      <point x="503" y="88" type="line"/>
      <point x="503" y="202" type="line"/>
      <point x="140" y="318" type="line"/>
      <point x="140" y="356" type="line"/>
      <point x="503" y="472" type="line"/>
    </contour>
  </outline>
</glyph>
<glyph name="question" format="1">
  <advance width="638"/>
  <unicode hex="003F"/>
  <outline>
    <contour>
      <point x="248" y="242" type="curve" smooth="yes"/>
      <point x="253" y="204" type="line"/>
      <point x="342" y="204" type="line"/>
      <point x="345" y="230" type="line" smooth="yes"/>
      <point x="349" y="259"/>
      <point x="360" y="270"/>
      <point x="402" y="281" type="curve" smooth="yes"/>
      <point x="562" y="322"/>
      <point x="615" y="377"/>
      <point x="615" y="483" type="curve" smooth="yes"/>
      <point x="615" y="483" type="line" smooth="yes"/>
      <point x="615" y="620"/>
      <point x="491" y="700"/>
      <point x="313" y="700" type="curve" smooth="yes"/>
      <point x="140" y="700"/>
      <point x="37" y="627"/>
      <point x="12" y="468" type="curve"/>
      <point x="172" y="468" type="line"/>
      <point x="172" y="468" type="line" smooth="yes"/>
      <point x="172" y="538"/>
      <point x="225" y="581"/>
      <point x="316" y="581" type="curve" smooth="yes"/>
      <point x="394" y="581"/>
      <point x="451" y="554"/>
      <point x="451" y="490" type="curve" smooth="yes"/>
      <point x="451" y="490" type="line" smooth="yes"/>
      <point x="451" y="447"/>
      <point x="428" y="419"/>
      <point x="359" y="402" type="curve" smooth="yes"/>
      <point x="265" y="378"/>
      <point x="232" y="335"/>
    </contour>
    <contour>
      <point x="214" y="0" type="line"/>
      <point x="382" y="0" type="line"/>
      <point x="382" y="161" type="line"/>
      <point x="214" y="161" type="line"/>
    </contour>
  </outline>
</glyph>
<glyph name="at" format="1">
  <advance width="952"/>
  <unicode hex="0040"/>
  <outline>
    <contour>
      <point x="476" y="-90" type="curve" smooth="yes"/>
      <point x="795" y="-90" type="line"/>
      <point x="795" y="7" type="line"/>
      <point x="476" y="7" type="line" smooth="yes"/>
      <point x="266" y="7"/>
      <point x="154" y="107"/>
      <point x="154" y="295" type="curve" smooth="yes"/>
      <point x="154" y="313" type="line" smooth="yes"/>
      <point x="154" y="500"/>
      <point x="266" y="600"/>
      <point x="476" y="600" type="curve" smooth="yes"/>
      <point x="685" y="600"/>
      <point x="797" y="500"/>
      <point x="797" y="313" type="curve" smooth="yes"/>
      <point x="797" y="295" type="line" smooth="yes"/>
      <point x="797" y="212"/>
      <point x="771" y="161"/>
      <point x="728" y="161" type="curve" smooth="yes"/>
      <point x="708" y="161"/>
      <point x="699" y="172"/>
      <point x="699" y="197" type="curve" smooth="yes"/>
      <point x="699" y="344" type="line" smooth="yes"/>
      <point x="699" y="464"/>
      <point x="622" y="529"/>
      <point x="482" y="529" type="curve" smooth="yes"/>
      <point x="355" y="529"/>
      <point x="273" y="475"/>
      <point x="255" y="375" type="curve"/>
      <point x="398" y="375" type="line"/>
      <point x="398" y="375" type="line"/>
      <point x="398" y="397"/>
      <point x="422" y="427"/>
      <point x="479" y="427" type="curve" smooth="yes"/>
      <point x="533" y="427"/>
      <point x="559" y="400"/>
      <point x="559" y="340" type="curve" smooth="yes"/>
      <point x="559" y="283" type="line"/>
      <point x="559" y="273" type="line"/>
      <point x="559" y="230" type="line" smooth="yes"/>
      <point x="559" y="186"/>
      <point x="527" y="163"/>
      <point x="466" y="163" type="curve" smooth="yes"/>
      <point x="418" y="163"/>
      <point x="388" y="179"/>
      <point x="388" y="205" type="curve" smooth="yes"/>
      <point x="388" y="206" type="line" smooth="yes"/>
      <point x="388" y="233"/>
      <point x="405" y="250"/>
      <point x="468" y="255" type="curve" smooth="yes"/>
      <point x="559" y="263" type="line"/>
      <point x="559" y="346" type="line"/>
      <point x="421" y="333" type="line" smooth="yes"/>
      <point x="309" y="323"/>
      <point x="244" y="277"/>
      <point x="244" y="196" type="curve" smooth="yes"/>
      <point x="244" y="115"/>
      <point x="306" y="65"/>
      <point x="403" y="65" type="curve" smooth="yes"/>
      <point x="476" y="65"/>
      <point x="521" y="94"/>
      <point x="541" y="166" type="curve"/>
      <point x="575" y="166" type="line"/>
      <point x="581" y="102"/>
      <point x="633" y="65"/>
      <point x="717" y="65" type="curve" smooth="yes"/>
      <point x="844" y="65"/>
      <point x="912" y="149"/>
      <point x="912" y="304" type="curve" smooth="yes"/>
      <point x="912" y="546"/>
      <point x="744" y="698"/>
      <point x="476" y="698" type="curve" smooth="yes"/>
      <point x="208" y="698"/>
      <point x="40" y="546"/>
      <point x="40" y="304" type="curve" smooth="yes"/>
      <point x="40" y="62"/>
      <point x="208" y="-90"/>
    </contour>
  </outline>
</glyph>
<glyph name="A" format="1">
  <advance width="754"/>
  <unicode hex="0041"/>
  <outline>
    <contour>
      <point x="20" y="0" type="line"/>
      <point x="182" y="0" type="line"/>
      <point x="358" y="563" type="line"/>
      <point x="396" y="563" type="line"/>
      <point x="572" y="0" type="line"/>
      <point x="742" y="0" type="line"/>
      <point x="528" y="690" type="line"/>
      <point x="234" y="690" type="line"/>
    </contour>
    <contour>
      <point x="180" y="150" type="line"/>
      <point x="565" y="150" type="line"/>
      <point x="562" y="258" type="line"/>
      <point x="183" y="258" type="line"/>
    </contour>
    <contour>
      <point x="124" y="578" type="line"/>
      <point x="350" y="578" type="line"/>
      <point x="350" y="690" type="line"/>
      <point x="124" y="690" type="line"/>
    </contour>
    <contour>
      <point x="742" y="0" type="move" name="ogonek"/>
    </contour>
    <contour>
      <point x="375" y="690" type="move" name="top"/>
    </contour>
  </outline>
</glyph>
<glyph name="B" format="1">
  <advance width="748"/>
  <unicode hex="0042"/>
  <outline>
    <contour>
      <point x="91" y="0" type="line"/>
      <point x="456" y="0" type="line" smooth="yes"/>
      <point x="607" y="0"/>
      <point x="702" y="73"/>
      <point x="702" y="190" type="curve" smooth="yes"/>
      <point x="702" y="276"/>
      <point x="654" y="325"/>
      <point x="562" y="333" type="curve"/>
      <point x="562" y="371" type="line"/>
      <point x="648" y="379"/>
      <point x="694" y="426"/>
      <point x="694" y="507" type="curve" smooth="yes"/>
      <point x="694" y="619"/>
      <point x="602" y="690"/>
      <point x="454" y="690" type="curve" smooth="yes"/>
      <point x="15" y="690" type="line"/>
      <point x="15" y="578" type="line"/>
      <point x="91" y="578" type="line"/>
    </contour>
    <contour>
      <point x="445" y="112" type="curve" smooth="yes"/>
      <point x="254" y="112" type="line"/>
      <point x="254" y="300" type="line"/>
      <point x="445" y="300" type="line" smooth="yes"/>
      <point x="507" y="300"/>
      <point x="535" y="270"/>
      <point x="535" y="207" type="curve" smooth="yes"/>
      <point x="535" y="205" type="line" smooth="yes"/>
      <point x="535" y="141"/>
      <point x="507" y="112"/>
    </contour>
    <contour>
      <point x="443" y="404" type="curve" smooth="yes"/>
      <point x="254" y="404" type="line"/>
      <point x="254" y="578" type="line"/>
      <point x="443" y="578" type="line" smooth="yes"/>
      <point x="501" y="578"/>
      <point x="527" y="551"/>
      <point x="527" y="492" type="curve" smooth="yes"/>
      <point x="527" y="490" type="line" smooth="yes"/>
      <point x="527" y="432"/>
      <point x="501" y="404"/>
    </contour>
  </outline>
</glyph>
<glyph name="C" format="1">
  <advance width="802"/>
  <unicode hex="0043"/>
  <outline>
    <contour>
      <point x="408" y="-10" type="curve" smooth="yes"/>
      <point x="603" y="-10"/>
      <point x="732" y="90"/>
      <point x="760" y="256" type="curve"/>
      <point x="592" y="256" type="line"/>
      <point x="592" y="256" type="line"/>
      <point x="592" y="185"/>
      <point x="541" y="110"/>
      <point x="408" y="110" type="curve" smooth="yes"/>
      <point x="274" y="110"/>
      <point x="214" y="183"/>
      <point x="214" y="342" type="curve" smooth="yes"/>
      <point x="214" y="348" type="line" smooth="yes"/>
      <point x="214" y="507"/>
      <point x="274" y="580"/>
      <point x="408" y="580" type="curve" smooth="yes"/>
      <point x="541" y="580"/>
      <point x="592" y="506"/>
      <point x="592" y="442" type="curve"/>
      <point x="592" y="442" type="line"/>
      <point x="758" y="442" type="line"/>
      <point x="728" y="603"/>
      <point x="600" y="700"/>
      <point x="408" y="700" type="curve" smooth="yes"/>
      <point x="183" y="700"/>
      <point x="43" y="564"/>
      <point x="43" y="345" type="curve" smooth="yes"/>
      <point x="43" y="126"/>
      <point x="183" y="-10"/>
    </contour>
    <contour>
      <point x="408" y="0" type="move" name="bottom"/>
    </contour>
    <contour>
      <point x="408" y="690" type="move" name="top"/>
    </contour>
  </outline>
</glyph>
<glyph name="F" format="1">
  <advance width="696"/>
  <unicode hex="0046"/>
  <outline>
    <contour>
      <point x="93" y="0" type="line"/>
      <point x="256" y="0" type="line"/>
      <point x="256" y="300" type="line"/>
      <point x="544" y="300" type="line"/>
      <point x="544" y="404" type="line"/>
      <point x="256" y="404" type="line"/>
      <point x="256" y="578" type="line"/>
      <point x="529" y="578" type="line"/>
      <point x="529" y="483" type="line"/>
      <point x="663" y="483" type="line"/>
      <point x="663" y="690" type="line"/>
      <point x="16" y="690" type="line"/>
      <point x="16" y="578" type="line"/>
      <point x="93" y="578" type="line"/>
    </contour>
  </outline>
</glyph>
<glyph name="G" format="1">
  <advance width="832"/>
  <unicode hex="0047"/>
  <outline>
    <contour>
      <point x="371" y="-10" type="curve" smooth="yes"/>
      <point x="486" y="-10"/>
      <point x="560" y="42"/>
      <point x="588" y="146" type="curve"/>
      <point x="626" y="146" type="line"/>
      <point x="626" y="0" type="line"/>
      <point x="766" y="0" type="line"/>
      <point x="766" y="358" type="line"/>
      <point x="415" y="358" type="line"/>
      <point x="415" y="253" type="line"/>
      <point x="625" y="253" type="line"/>
      <point x="607" y="320" type="line"/>
      <point x="607" y="308" type="line" smooth="yes"/>
      <point x="607" y="183"/>
      <point x="545" y="106"/>
      <point x="411" y="106" type="curve" smooth="yes"/>
      <point x="276" y="106"/>
      <point x="215" y="180"/>
      <point x="215" y="342" type="curve" smooth="yes"/>
      <point x="215" y="348" type="line" smooth="yes"/>
      <point x="215" y="507"/>
      <point x="275" y="580"/>
      <point x="409" y="580" type="curve" smooth="yes"/>
      <point x="542" y="580"/>
      <point x="588" y="502"/>
      <point x="588" y="466" type="curve"/>
      <point x="588" y="466" type="line"/>
      <point x="754" y="466" type="line"/>
      <point x="716" y="613"/>
      <point x="591" y="700"/>
      <point x="409" y="700" type="curve" smooth="yes"/>
      <point x="184" y="700"/>
      <point x="44" y="564"/>
      <point x="44" y="345" type="curve" smooth="yes"/>
      <point x="44" y="126"/>
      <point x="186" y="-10"/>
    </contour>
  </outline>
</glyph>
<glyph name="J" format="1">
  <advance width="694"/>
  <unicode hex="004A"/>
  <outline>
    <contour>
      <point x="322" y="-10" type="curve" smooth="yes"/>
      <point x="517" y="-10"/>
      <point x="620" y="89"/>
      <point x="620" y="276" type="curve" smooth="yes"/>
      <point x="620" y="690" type="line"/>
      <point x="215" y="690" type="line"/>
      <point x="215" y="578" type="line"/>
      <point x="457" y="578" type="line"/>
      <point x="457" y="276" type="line" smooth="yes"/>
      <point x="457" y="160"/>
      <point x="416" y="110"/>
      <point x="322" y="110" type="curve" smooth="yes"/>
      <point x="228" y="110"/>
      <point x="187" y="160"/>
      <point x="187" y="275" type="curve" smooth="yes"/>
      <point x="187" y="296" type="line"/>
      <point x="24" y="296" type="line"/>
      <point x="24" y="275" type="line" smooth="yes"/>
      <point x="24" y="89"/>
      <point x="127" y="-10"/>
    </contour>
    <contour>
      <point x="432" y="690" type="move" name="top"/>
    </contour>
  </outline>
</glyph>
<glyph name="K" format="1">
  <advance width="752"/>
  <unicode hex="004B"/>
  <outline>
    <contour>
      <point x="91" y="0" type="line"/>
      <point x="253" y="0" type="line"/>
      <point x="253" y="300" type="line"/>
      <point x="330" y="300" type="line"/>
      <point x="544" y="0" type="line"/>
      <point x="741" y="0" type="line"/>
      <point x="741" y="109" type="line"/>
      <point x="664" y="109" type="line"/>
      <point x="458" y="392" type="line"/>
      <point x="457" y="329" type="line"/>
      <point x="730" y="690" type="line"/>
      <point x="540" y="690" type="line"/>
      <point x="330" y="408" type="line"/>
      <point x="253" y="408" type="line"/>
      <point x="253" y="690" type="line"/>
      <point x="14" y="690" type="line"/>
      <point x="14" y="578" type="line"/>
      <point x="91" y="578" type="line"/>
    </contour>
  </outline>
</glyph>
<glyph name="P" format="1">
  <advance width="722"/>
  <unicode hex="0050"/>
  <outline>
    <contour>
      <point x="91" y="0" type="line"/>
      <point x="253" y="0" type="line"/>
      <point x="253" y="270" type="line"/>
      <point x="447" y="270" type="line" smooth="yes"/>
      <point x="609" y="270"/>
      <point x="697" y="343"/>
      <point x="697" y="476" type="curve" smooth="yes"/>
      <point x="697" y="615"/>
      <point x="608" y="690"/>
      <point x="445" y="690" type="curve" smooth="yes"/>
      <point x="14" y="690" type="line"/>
      <point x="14" y="578" type="line"/>
      <point x="91" y="578" type="line"/>
    </contour>
    <contour>
      <point x="434" y="374" type="curve" smooth="yes"/>
      <point x="253" y="374" type="line"/>
      <point x="253" y="578" type="line"/>
      <point x="434" y="578" type="line" smooth="yes"/>
      <point x="500" y="578"/>
      <point x="531" y="546"/>
      <point x="531" y="479" type="curve" smooth="yes"/>
      <point x="531" y="473" type="line" smooth="yes"/>
      <point x="531" y="406"/>
      <point x="500" y="374"/>
    </contour>
  </outline>
</glyph>
<glyph name="R" format="1">
  <advance width="774"/>
  <unicode hex="0052"/>
  <outline>
    <contour>
      <point x="91" y="0" type="line"/>
      <point x="254" y="0" type="line"/>
      <point x="254" y="290" type="line"/>
      <point x="428" y="290" type="line" smooth="yes"/>
      <point x="487" y="290"/>
      <point x="514" y="261"/>
      <point x="514" y="201" type="curve" smooth="yes"/>
      <point x="514" y="0" type="line"/>
      <point x="750" y="0" type="line"/>
      <point x="750" y="112" type="line"/>
      <point x="674" y="112" type="line"/>
      <point x="674" y="194" type="line" smooth="yes"/>
      <point x="674" y="275"/>
      <point x="635" y="315"/>
      <point x="552" y="321" type="curve"/>
      <point x="552" y="359" type="line"/>
      <point x="647" y="366"/>
      <point x="698" y="416"/>
      <point x="698" y="502" type="curve" smooth="yes"/>
      <point x="698" y="617"/>
      <point x="604" y="690"/>
      <point x="456" y="690" type="curve" smooth="yes"/>
      <point x="14" y="690" type="line"/>
      <point x="14" y="578" type="line"/>
      <point x="91" y="578" type="line"/>
    </contour>
    <contour>
      <point x="445" y="394" type="curve" smooth="yes"/>
      <point x="254" y="394" type="line"/>
      <point x="254" y="578" type="line"/>
      <point x="445" y="578" type="line" smooth="yes"/>
      <point x="504" y="578"/>
      <point x="531" y="550"/>
      <point x="531" y="489" type="curve" smooth="yes"/>
      <point x="531" y="483" type="line" smooth="yes"/>
      <point x="531" y="423"/>
      <point x="504" y="394"/>
    </contour>
  </outline>
</glyph>
<glyph name="S" format="1">
  <advance width="738"/>
  <unicode hex="0053"/>
  <outline>
    <contour>
      <point x="371" y="-10" type="curve" smooth="yes"/>
      <point x="578" y="-10"/>
      <point x="695" y="71"/>
      <point x="695" y="212" type="curve" smooth="yes"/>
      <point x="695" y="318"/>
      <point x="628" y="377"/>
      <point x="480" y="399" type="curve" smooth="yes"/>
      <point x="308" y="425" type="line" smooth="yes"/>
      <point x="238" y="436"/>
      <point x="211" y="455"/>
      <point x="211" y="493" type="curve" smooth="yes"/>
      <point x="211" y="493" type="line" smooth="yes"/>
      <point x="211" y="550"/>
      <point x="266" y="580"/>
      <point x="367" y="580" type="curve" smooth="yes"/>
      <point x="481" y="580"/>
      <point x="532" y="532"/>
      <point x="532" y="448" type="curve" smooth="yes"/>
      <point x="532" y="448" type="line"/>
      <point x="693" y="448" type="line"/>
      <point x="669" y="621"/>
      <point x="566" y="700"/>
      <point x="367" y="700" type="curve" smooth="yes"/>
      <point x="163" y="700"/>
      <point x="47" y="619"/>
      <point x="47" y="478" type="curve" smooth="yes"/>
      <point x="47" y="373"/>
      <point x="112" y="313"/>
      <point x="260" y="291" type="curve" smooth="yes"/>
      <point x="432" y="265" type="line" smooth="yes"/>
      <point x="503" y="254"/>
      <point x="531" y="235"/>
      <point x="531" y="197" type="curve" smooth="yes"/>
      <point x="531" y="197" type="line" smooth="yes"/>
      <point x="531" y="142"/>
      <point x="473" y="110"/>
      <point x="371" y="110" type="curve" smooth="yes"/>
      <point x="254" y="110"/>
      <point x="203" y="157"/>
      <point x="203" y="242" type="curve" smooth="yes"/>
      <point x="203" y="242" type="line"/>
      <point x="40" y="242" type="line"/>
      <point x="64" y="69"/>
      <point x="170" y="-10"/>
    </contour>
    <contour>
      <point x="363" y="690" type="move" name="top"/>
    </contour>
  </outline>
</glyph>
<glyph name="T" format="1">
  <advance width="702"/>
  <unicode hex="0054"/>
  <outline>
    <contour>
      <point x="270" y="0" type="line"/>
      <point x="432" y="0" type="line"/>
      <point x="432" y="578" type="line"/>
      <point x="538" y="578" type="line"/>
      <point x="538" y="483" type="line"/>
      <point x="672" y="483" type="line"/>
      <point x="672" y="690" type="line"/>
      <point x="30" y="690" type="line"/>
      <point x="30" y="483" type="line"/>
      <point x="164" y="483" type="line"/>
      <point x="164" y="578" type="line"/>
      <point x="270" y="578" type="line"/>
    </contour>
  </outline>
</glyph>
<glyph name="U" format="1">
  <advance width="824"/>
  <unicode hex="0055"/>
  <outline>
    <contour>
      <point x="333" y="-10" type="curve" smooth="yes"/>
      <point x="454" y="-10"/>
      <point x="521" y="36"/>
      <point x="552" y="136" type="curve"/>
      <point x="590" y="136" type="line"/>
      <point x="590" y="94" type="line" smooth="yes"/>
      <point x="590" y="33"/>
      <point x="623" y="0"/>
      <point x="683" y="0" type="curve" smooth="yes"/>
      <point x="810" y="0" type="line"/>
      <point x="810" y="112" type="line"/>
      <point x="733" y="112" type="line"/>
      <point x="733" y="690" type="line"/>
      <point x="571" y="690" type="line"/>
      <point x="571" y="300" type="line" smooth="yes"/>
      <point x="571" y="169"/>
      <point x="520" y="110"/>
      <point x="409" y="110" type="curve" smooth="yes"/>
      <point x="297" y="110"/>
      <point x="247" y="169"/>
      <point x="247" y="300" type="curve" smooth="yes"/>
      <point x="247" y="690" type="line"/>
      <point x="7" y="690" type="line"/>
      <point x="7" y="578" type="line"/>
      <point x="84" y="578" type="line"/>
      <point x="84" y="266" type="line" smooth="yes"/>
      <point x="84" y="87"/>
      <point x="171" y="-10"/>
    </contour>
    <contour>
      <point x="409" y="690" type="move" name="top"/>
    </contour>
  </outline>
</glyph>
<glyph name="V" format="1">
  <advance width="746"/>
  <unicode hex="0056"/>
  <outline>
    <contour>
      <point x="226" y="0" type="line"/>
      <point x="520" y="0" type="line"/>
      <point x="734" y="690" type="line"/>
      <point x="571" y="690" type="line"/>
      <point x="396" y="127" type="line"/>
      <point x="358" y="127" type="line"/>
      <point x="182" y="690" type="line"/>
      <point x="12" y="690" type="line"/>
    </contour>
  </outline>
</glyph>
<glyph name="W" format="1">
  <advance width="1131"/>
  <unicode hex="0057"/>
  <outline>
    <contour>
      <point x="183" y="0" type="line"/>
      <point x="451" y="0" type="line"/>
      <point x="546" y="447" type="line"/>
      <point x="584" y="447" type="line"/>
      <point x="679" y="0" type="line"/>
      <point x="947" y="0" type="line"/>
      <point x="1112" y="690" type="line"/>
      <point x="951" y="690" type="line"/>
      <point x="823" y="123" type="line"/>
      <point x="785" y="123" type="line"/>
      <point x="656" y="690" type="line"/>
      <point x="481" y="690" type="line"/>
      <point x="352" y="123" type="line"/>
      <point x="314" y="123" type="line"/>
      <point x="186" y="690" type="line"/>
      <point x="18" y="690" type="line"/>
    </contour>
  </outline>
</glyph>
<glyph name="Y" format="1">
  <advance width="738"/>
  <unicode hex="0059"/>
  <outline>
    <contour>
      <point x="209" y="0" type="line"/>
      <point x="529" y="0" type="line"/>
      <point x="529" y="112" type="line"/>
      <point x="450" y="112" type="line"/>
      <point x="450" y="261" type="line"/>
      <point x="732" y="690" type="line"/>
      <point x="565" y="690" type="line"/>
      <point x="392" y="415" type="line"/>
      <point x="354" y="415" type="line"/>
      <point x="180" y="690" type="line"/>
      <point x="6" y="690" type="line"/>
      <point x="288" y="261" type="line"/>
      <point x="288" y="112" type="line"/>
      <point x="209" y="112" type="line"/>
    </contour>
    <contour>
      <point x="373" y="690" type="move" name="top"/>
    </contour>
  </outline>
</glyph>
<glyph name="asciicircum" format="1">
  <advance width="532"/>
  <unicode hex="005E"/>
  <outline>
    <contour>
      <point x="45" y="392" type="line"/>
      <point x="163" y="392" type="line"/>
      <point x="249" y="581" type="line"/>
      <point x="287" y="581" type="line"/>
      <point x="370" y="392" type="line"/>
      <point x="487" y="392" type="line"/>
      <point x="352" y="690" type="line"/>
      <point x="188" y="690" type="line"/>
    </contour>
  </outline>
</glyph>
<glyph name="c" format="1">
  <advance width="660"/>
  <unicode hex="0063"/>
  <outline>
    <contour>
      <point x="336" y="-10" type="curve" smooth="yes"/>
      <point x="492" y="-10"/>
      <point x="598" y="67"/>
      <point x="620" y="194" type="curve"/>
      <point x="457" y="194" type="line"/>
      <point x="457" y="194" type="line"/>
      <point x="457" y="160"/>
      <point x="425" y="106"/>
      <point x="336" y="106" type="curve" smooth="yes"/>
      <point x="247" y="106"/>
      <point x="206" y="156"/>
      <point x="206" y="264" type="curve" smooth="yes"/>
      <point x="206" y="270" type="line" smooth="yes"/>
      <point x="206" y="378"/>
      <point x="247" y="428"/>
      <point x="336" y="428" type="curve" smooth="yes"/>
      <point x="425" y="428"/>
      <point x="457" y="374"/>
      <point x="457" y="348" type="curve"/>
      <point x="457" y="348" type="line"/>
      <point x="619" y="348" type="line"/>
      <point x="593" y="470"/>
      <point x="489" y="544"/>
      <point x="336" y="544" type="curve" smooth="yes"/>
      <point x="154" y="544"/>
      <point x="39" y="437"/>
      <point x="39" y="267" type="curve" smooth="yes"/>
      <point x="39" y="97"/>
      <point x="154" y="-10"/>
    </contour>
    <contour>
      <point x="336" y="0" type="move" name="bottom"/>
    </contour>
    <contour>
      <point x="336" y="534" type="move" name="top"/>
    </contour>
  </outline>
</glyph>
<glyph name="d" format="1">
  <advance width="712"/>
  <unicode hex="0064"/>
  <outline>
    <contour>
      <point x="278" y="-10" type="curve" smooth="yes"/>
      <point x="365" y="-10"/>
      <point x="424" y="33"/>
      <point x="450" y="115" type="curve"/>
      <point x="488" y="115" type="line"/>
      <point x="488" y="94" type="line" smooth="yes"/>
      <point x="488" y="33"/>
      <point x="521" y="0"/>
      <point x="582" y="0" type="curve" smooth="yes"/>
      <point x="696" y="0" type="line"/>
      <point x="696" y="108" type="line"/>
      <point x="628" y="108" type="line"/>
      <point x="628" y="690" type="line"/>
      <point x="399" y="690" type="line"/>
      <point x="399" y="582" type="line"/>
      <point x="469" y="582" type="line"/>
      <point x="469" y="555" type="line" smooth="yes"/>
      <point x="469" y="524"/>
      <point x="472" y="492"/>
      <point x="479" y="429" type="curve"/>
      <point x="441" y="429" type="line"/>
      <point x="419" y="505"/>
      <point x="364" y="544"/>
      <point x="278" y="544" type="curve" smooth="yes"/>
      <point x="136" y="544"/>
      <point x="40" y="432"/>
      <point x="40" y="267" type="curve" smooth="yes"/>
      <point x="40" y="102"/>
      <point x="139" y="-10"/>
    </contour>
    <contour>
      <point x="338" y="106" type="curve" smooth="yes"/>
      <point x="247" y="106"/>
      <point x="206" y="156"/>
      <point x="206" y="264" type="curve" smooth="yes"/>
      <point x="206" y="270" type="line" smooth="yes"/>
      <point x="206" y="378"/>
      <point x="247" y="428"/>
      <point x="338" y="428" type="curve" smooth="yes"/>
      <point x="428" y="428"/>
      <point x="469" y="378"/>
      <point x="469" y="270" type="curve" smooth="yes"/>
      <point x="469" y="264" type="line" smooth="yes"/>
      <point x="469" y="156"/>
      <point x="428" y="106"/>
    </contour>
  </outline>
</glyph>
<glyph name="g" format="1">
  <advance width="635"/>
  <unicode hex="0067"/>
  <outline>
    <contour>
      <point x="50" y="-132" type="line"/>
      <point x="422" y="-132" type="line" smooth="yes"/>
      <point x="543" y="-132"/>
      <point x="609" y="-82"/>
      <point x="609" y="12" type="curve" smooth="yes"/>
      <point x="609" y="96"/>
      <point x="554" y="141"/>
      <point x="451" y="141" type="curve" smooth="yes"/>
      <point x="218" y="141" type="line" smooth="yes"/>
      <point x="200" y="141"/>
      <point x="192" y="147"/>
      <point x="192" y="159" type="curve" smooth="yes"/>
      <point x="192" y="172"/>
      <point x="200" y="178"/>
      <point x="218" y="178" type="curve" smooth="yes"/>
      <point x="319" y="178" type="line" smooth="yes"/>
      <point x="475" y="178"/>
      <point x="573" y="245"/>
      <point x="573" y="357" type="curve" smooth="yes"/>
      <point x="573" y="474"/>
      <point x="473" y="544"/>
      <point x="310" y="544" type="curve" smooth="yes"/>
      <point x="147" y="544"/>
      <point x="47" y="474"/>
      <point x="47" y="357" type="curve" smooth="yes"/>
      <point x="47" y="283"/>
      <point x="85" y="228"/>
      <point x="159" y="210" type="curve"/>
      <point x="159" y="176" type="line"/>
      <point x="86" y="175"/>
      <point x="51" y="149"/>
      <point x="51" y="99" type="curve" smooth="yes"/>
      <point x="51" y="49"/>
      <point x="87" y="25"/>
      <point x="167" y="25" type="curve" smooth="yes"/>
      <point x="423" y="25" type="line" smooth="yes"/>
      <point x="445" y="25"/>
      <point x="455" y="18"/>
      <point x="455" y="1" type="curve" smooth="yes"/>
      <point x="455" y="-17"/>
      <point x="445" y="-24"/>
      <point x="423" y="-24" type="curve" smooth="yes"/>
      <point x="50" y="-24" type="line"/>
    </contour>
    <contour>
      <point x="310" y="279" type="curve" smooth="yes"/>
      <point x="236" y="279"/>
      <point x="199" y="303"/>
      <point x="199" y="356" type="curve" smooth="yes"/>
      <point x="199" y="358" type="line" smooth="yes"/>
      <point x="199" y="411"/>
      <point x="236" y="435"/>
      <point x="310" y="435" type="curve" smooth="yes"/>
      <point x="383" y="435"/>
      <point x="421" y="411"/>
      <point x="421" y="358" type="curve" smooth="yes"/>
      <point x="421" y="356" type="line" smooth="yes"/>
      <point x="421" y="303"/>
      <point x="383" y="279"/>
    </contour>
    <contour>
      <point x="388" y="503" type="curve"/>
      <point x="414" y="480" type="line"/>
      <point x="414" y="517"/>
      <point x="429" y="534"/>
      <point x="461" y="534" type="curve" smooth="yes"/>
      <point x="598" y="534" type="line"/>
      <point x="598" y="642" type="line"/>
      <point x="501" y="642" type="line" smooth="yes"/>
      <point x="423" y="642"/>
      <point x="388" y="599"/>
    </contour>
  </outline>
</glyph>
<glyph name="h" format="1">
  <advance width="687"/>
  <unicode hex="0068"/>
  <outline>
    <contour>
      <point x="72" y="0" type="line"/>
      <point x="231" y="0" type="line"/>
      <point x="231" y="300" type="line" smooth="yes"/>
      <point x="231" y="388"/>
      <point x="265" y="428"/>
      <point x="338" y="428" type="curve" smooth="yes"/>
      <point x="411" y="428"/>
      <point x="445" y="388"/>
      <point x="445" y="300" type="curve" smooth="yes"/>
      <point x="445" y="0" type="line"/>
      <point x="671" y="0" type="line"/>
      <point x="671" y="108" type="line"/>
      <point x="604" y="108" type="line"/>
      <point x="604" y="330" type="line" smooth="yes"/>
      <point x="604" y="470"/>
      <point x="537" y="544"/>
      <point x="413" y="544" type="curve" smooth="yes"/>
      <point x="329" y="544"/>
      <point x="280" y="509"/>
      <point x="259" y="431" type="curve"/>
      <point x="221" y="431" type="line"/>
      <point x="228" y="494"/>
      <point x="231" y="526"/>
      <point x="231" y="557" type="curve" smooth="yes"/>
      <point x="231" y="690" type="line"/>
      <point x="4" y="690" type="line"/>
      <point x="4" y="582" type="line"/>
      <point x="72" y="582" type="line"/>
    </contour>
  </outline>
</glyph>
<glyph name="k" format="1">
  <advance width="666"/>
  <unicode hex="006B"/>
  <outline>
    <contour>
      <point x="71" y="0" type="line"/>
      <point x="230" y="0" type="line"/>
      <point x="230" y="224" type="line"/>
      <point x="299" y="224" type="line"/>
      <point x="462" y="0" type="line"/>
      <point x="647" y="0" type="line"/>
      <point x="647" y="108" type="line"/>
      <point x="579" y="108" type="line"/>
      <point x="422" y="316" type="line"/>
      <point x="421" y="249" type="line"/>
      <point x="644" y="534" type="line"/>
      <point x="457" y="534" type="line"/>
      <point x="299" y="328" type="line"/>
      <point x="230" y="328" type="line"/>
      <point x="230" y="690" type="line"/>
      <point x="4" y="690" type="line"/>
      <point x="4" y="582" type="line"/>
      <point x="71" y="582" type="line"/>
    </contour>
  </outline>
</glyph>
<glyph name="m" format="1">
  <advance width="1040"/>
  <unicode hex="006D"/>
  <outline>
    <contour>
      <point x="444" y="308" type="curve" smooth="yes"/>
      <point x="444" y="0" type="line"/>
      <point x="603" y="0" type="line"/>
      <point x="603" y="308" type="line" smooth="yes"/>
      <point x="603" y="389"/>
      <point x="636" y="428"/>
      <point x="701" y="428" type="curve" smooth="yes"/>
      <point x="766" y="428"/>
      <point x="798" y="389"/>
      <point x="798" y="308" type="curve" smooth="yes"/>
      <point x="798" y="0" type="line"/>
      <point x="1025" y="0" type="line"/>
      <point x="1025" y="108" type="line"/>
      <point x="957" y="108" type="line"/>
      <point x="957" y="330" type="line" smooth="yes"/>
      <point x="957" y="470"/>
      <point x="894" y="544"/>
      <point x="776" y="544" type="curve" smooth="yes"/>
      <point x="693" y="544"/>
      <point x="644" y="506"/>
      <point x="621" y="421" type="curve"/>
      <point x="585" y="421" type="line"/>
      <point x="563" y="502"/>
      <point x="507" y="544"/>
      <point x="422" y="544" type="curve" smooth="yes"/>
      <point x="339" y="544"/>
      <point x="291" y="506"/>
      <point x="268" y="421" type="curve"/>
      <point x="230" y="421" type="line"/>
      <point x="230" y="534" type="line"/>
      <point x="22" y="534" type="line"/>
      <point x="22" y="426" type="line"/>
      <point x="90" y="426" type="line"/>
      <point x="90" y="0" type="line"/>
      <point x="249" y="0" type="line"/>
      <point x="249" y="308" type="line" smooth="yes"/>
      <point x="249" y="389"/>
      <point x="281" y="428"/>
      <point x="347" y="428" type="curve" smooth="yes"/>
      <point x="412" y="428"/>
      <point x="444" y="389"/>
    </contour>
  </outline>
</glyph>
<glyph name="n" format="1">
  <advance width="704"/>
  <unicode hex="006E"/>
  <outline>
    <contour>
      <point x="90" y="0" type="line"/>
      <point x="249" y="0" type="line"/>
      <point x="249" y="300" type="line" smooth="yes"/>
      <point x="249" y="388"/>
      <point x="283" y="428"/>
      <point x="356" y="428" type="curve" smooth="yes"/>
      <point x="429" y="428"/>
      <point x="462" y="388"/>
      <point x="462" y="300" type="curve" smooth="yes"/>
      <point x="462" y="0" type="line"/>
      <point x="689" y="0" type="line"/>
      <point x="689" y="108" type="line"/>
      <point x="621" y="108" type="line"/>
      <point x="621" y="330" type="line" smooth="yes"/>
      <point x="621" y="470"/>
      <point x="555" y="544"/>
      <point x="431" y="544" type="curve" smooth="yes"/>
      <point x="345" y="544"/>
      <point x="294" y="506"/>
      <point x="268" y="421" type="curve"/>
      <point x="230" y="421" type="line"/>
      <point x="230" y="534" type="line"/>
      <point x="22" y="534" type="line"/>
      <point x="22" y="426" type="line"/>
      <point x="90" y="426" type="line"/>
    </contour>
    <contour>
      <point x="358" y="534" type="move" name="top"/>
    </contour>
  </outline>
</glyph>
<glyph name="o" format="1">
  <advance width="684"/>
  <unicode hex="006F"/>
  <outline>
    <contour>
      <point x="342" y="-10" type="curve" smooth="yes"/>
      <point x="528" y="-10"/>
      <point x="645" y="97"/>
      <point x="645" y="267" type="curve" smooth="yes"/>
      <point x="645" y="437"/>
      <point x="528" y="544"/>
      <point x="342" y="544" type="curve" smooth="yes"/>
      <point x="156" y="544"/>
      <point x="39" y="437"/>
      <point x="39" y="267" type="curve" smooth="yes"/>
      <point x="39" y="97"/>
      <point x="156" y="-10"/>
    </contour>
    <contour>
      <point x="342" y="106" type="curve" smooth="yes"/>
      <point x="249" y="106"/>
      <point x="206" y="156"/>
      <point x="206" y="264" type="curve" smooth="yes"/>
      <point x="206" y="270" type="line" smooth="yes"/>
      <point x="206" y="378"/>
      <point x="249" y="428"/>
      <point x="342" y="428" type="curve" smooth="yes"/>
      <point x="435" y="428"/>
      <point x="478" y="378"/>
      <point x="478" y="270" type="curve" smooth="yes"/>
      <point x="478" y="264" type="line" smooth="yes"/>
      <point x="478" y="156"/>
      <point x="435" y="106"/>
    </contour>
    <contour>
      <point x="342" y="534" type="move" name="top"/>
    </contour>
  </outline>
</glyph>
<glyph name="p" format="1">
  <advance width="717"/>
  <unicode hex="0070"/>
  <outline>
    <contour>
      <point x="89" y="-132" type="line"/>
      <point x="248" y="-132" type="line"/>
      <point x="248" y="-17" type="line" smooth="yes"/>
      <point x="248" y="10"/>
      <point x="245" y="42"/>
      <point x="238" y="105" type="curve"/>
      <point x="276" y="105" type="line"/>
      <point x="298" y="29"/>
      <point x="353" y="-10"/>
      <point x="439" y="-10" type="curve" smooth="yes"/>
      <point x="581" y="-10"/>
      <point x="678" y="102"/>
      <point x="678" y="267" type="curve" smooth="yes"/>
      <point x="678" y="432"/>
      <point x="579" y="544"/>
      <point x="439" y="544" type="curve" smooth="yes"/>
      <point x="352" y="544"/>
      <point x="293" y="501"/>
      <point x="267" y="419" type="curve"/>
      <point x="229" y="419" type="line"/>
      <point x="229" y="534" type="line"/>
      <point x="21" y="534" type="line"/>
      <point x="21" y="426" type="line"/>
      <point x="89" y="426" type="line"/>
    </contour>
    <contour>
      <point x="380" y="106" type="curve" smooth="yes"/>
      <point x="289" y="106"/>
      <point x="248" y="156"/>
      <point x="248" y="264" type="curve" smooth="yes"/>
      <point x="248" y="270" type="line" smooth="yes"/>
      <point x="248" y="378"/>
      <point x="289" y="428"/>
      <point x="380" y="428" type="curve" smooth="yes"/>
      <point x="470" y="428"/>
      <point x="511" y="378"/>
      <point x="511" y="270" type="curve" smooth="yes"/>
      <point x="511" y="264" type="line" smooth="yes"/>
      <point x="511" y="156"/>
      <point x="470" y="106"/>
    </contour>
  </outline>
</glyph>
<glyph name="u" format="1">
  <advance width="706"/>
  <unicode hex="0075"/>
  <outline>
    <contour>
      <point x="273" y="-10" type="curve" smooth="yes"/>
      <point x="360" y="-10"/>
      <point x="410" y="28"/>
      <point x="436" y="113" type="curve"/>
      <point x="474" y="113" type="line"/>
      <point x="474" y="94" type="line" smooth="yes"/>
      <point x="474" y="33"/>
      <point x="507" y="0"/>
      <point x="568" y="0" type="curve" smooth="yes"/>
      <point x="682" y="0" type="line"/>
      <point x="682" y="108" type="line"/>
      <point x="614" y="108" type="line"/>
      <point x="614" y="534" type="line"/>
      <point x="455" y="534" type="line"/>
      <point x="455" y="234" type="line" smooth="yes"/>
      <point x="455" y="146"/>
      <point x="421" y="106"/>
      <point x="348" y="106" type="curve" smooth="yes"/>
      <point x="275" y="106"/>
      <point x="242" y="146"/>
      <point x="242" y="234" type="curve" smooth="yes"/>
      <point x="242" y="534" type="line"/>
      <point x="15" y="534" type="line"/>
      <point x="15" y="426" type="line"/>
      <point x="83" y="426" type="line"/>
      <point x="83" y="204" type="line" smooth="yes"/>
      <point x="83" y="64"/>
      <point x="149" y="-10"/>
    </contour>
    <contour>
      <point x="348" y="534" type="move" name="top"/>
    </contour>
  </outline>
</glyph>
<glyph name="v" format="1">
  <advance width="628"/>
  <unicode hex="0076"/>
  <outline>
    <contour>
      <point x="171" y="0" type="line"/>
      <point x="457" y="0" type="line"/>
      <point x="615" y="534" type="line"/>
      <point x="456" y="534" type="line"/>
      <point x="337" y="123" type="line"/>
      <point x="299" y="123" type="line"/>
      <point x="179" y="534" type="line"/>
      <point x="13" y="534" type="line"/>
    </contour>
  </outline>
</glyph>
<glyph name="w" format="1">
  <advance width="1010"/>
  <unicode hex="0077"/>
  <outline>
    <contour>
      <point x="155" y="0" type="line"/>
      <point x="418" y="0" type="line"/>
      <point x="486" y="295" type="line"/>
      <point x="524" y="295" type="line"/>
      <point x="592" y="0" type="line"/>
      <point x="855" y="0" type="line"/>
      <point x="994" y="534" type="line"/>
      <point x="837" y="534" type="line"/>
      <point x="735" y="123" type="line"/>
      <point x="697" y="123" type="line"/>
      <point x="594" y="534" type="line"/>
      <point x="423" y="534" type="line"/>
      <point x="321" y="123" type="line"/>
      <point x="283" y="123" type="line"/>
      <point x="180" y="534" type="line"/>
      <point x="16" y="534" type="line"/>
    </contour>
  </outline>
</glyph>
<glyph name="x" format="1">
  <advance width="685"/>
  <unicode hex="0078"/>
  <outline>
    <contour>
      <point x="35" y="0" type="line"/>
      <point x="219" y="0" type="line"/>
      <point x="320" y="211" type="line"/>
      <point x="358" y="211" type="line"/>
      <point x="459" y="0" type="line"/>
      <point x="650" y="0" type="line"/>
      <point x="650" y="108" type="line"/>
      <point x="583" y="108" type="line"/>
      <point x="469" y="333" type="line"/>
      <point x="468" y="249" type="line"/>
      <point x="575" y="426" type="line"/>
      <point x="642" y="426" type="line"/>
      <point x="642" y="534" type="line"/>
      <point x="459" y="534" type="line"/>
      <point x="366" y="341" type="line"/>
      <point x="327" y="341" type="line"/>
      <point x="234" y="534" type="line"/>
      <point x="43" y="534" type="line"/>
      <point x="43" y="426" type="line"/>
      <point x="111" y="426" type="line"/>
      <point x="217" y="249" type="line"/>
      <point x="217" y="333" type="line"/>
      <point x="103" y="108" type="line"/>
      <point x="35" y="108" type="line"/>
    </contour>
  </outline>
</glyph>
<glyph name="z" format="1">
  <advance width="578"/>
  <unicode hex="007A"/>
  <outline>
    <contour>
      <point x="37" y="0" type="line"/>
      <point x="541" y="0" type="line"/>
      <point x="541" y="108" type="line"/>
      <point x="238" y="108" type="line"/>
      <point x="537" y="426" type="line"/>
      <point x="537" y="534" type="line"/>
      <point x="41" y="534" type="line"/>
      <point x="41" y="426" type="line"/>
      <point x="336" y="426" type="line"/>
      <point x="37" y="108" type="line"/>
    </contour>
    <contour>
      <point x="289" y="534" type="move" name="top"/>
    </contour>
  </outline>
</glyph>
<glyph name="asciitilde" format="1">
  <advance width="532"/>
  <unicode hex="007E"/>
  <outline>
    <contour>
      <point x="26" y="256" type="curve"/>
      <point x="138" y="256" type="line"/>
      <point x="138" y="289"/>
      <point x="153" y="307"/>
      <point x="180" y="307" type="curve" smooth="yes"/>
      <point x="226" y="307"/>
      <point x="292" y="255"/>
      <point x="380" y="255" type="curve" smooth="yes"/>
      <point x="466" y="255"/>
      <point x="506" y="307"/>
      <point x="506" y="418" type="curve"/>
      <point x="394" y="418" type="line"/>
      <point x="394" y="385"/>
      <point x="379" y="367"/>
      <point x="352" y="367" type="curve" smooth="yes"/>
      <point x="306" y="367"/>
      <point x="240" y="419"/>
      <point x="152" y="419" type="curve" smooth="yes"/>
      <point x="66" y="419"/>
      <point x="26" y="367"/>
    </contour>
  </outline>
</glyph>
<glyph name="sterling" format="1">
  <advance width="721"/>
  <unicode hex="00A3"/>
  <outline>
    <contour>
      <point x="57" y="117" type="curve"/>
      <point x="57" y="0" type="line"/>
      <point x="678" y="0" type="line"/>
      <point x="678" y="127" type="line"/>
      <point x="260" y="127" type="line"/>
      <point x="297" y="159"/>
      <point x="316" y="189"/>
      <point x="316" y="245" type="curve" smooth="yes"/>
      <point x="316" y="327"/>
      <point x="246" y="401"/>
      <point x="246" y="479" type="curve" smooth="yes"/>
      <point x="246" y="481" type="line" smooth="yes"/>
      <point x="246" y="531"/>
      <point x="292" y="580"/>
      <point x="378" y="580" type="curve" smooth="yes"/>
      <point x="465" y="580"/>
      <point x="527" y="541"/>
      <point x="527" y="461" type="curve" smooth="yes"/>
      <point x="527" y="448" type="line"/>
      <point x="679" y="448" type="line"/>
      <point x="676" y="615"/>
      <point x="569" y="700"/>
      <point x="378" y="700" type="curve" smooth="yes"/>
      <point x="192" y="700"/>
      <point x="77" y="619"/>
      <point x="77" y="495" type="curve" smooth="yes"/>
      <point x="77" y="388"/>
      <point x="156" y="328"/>
      <point x="156" y="245" type="curve" smooth="yes"/>
      <point x="156" y="186"/>
      <point x="118" y="143"/>
    </contour>
    <contour>
      <point x="45" y="276" type="line"/>
      <point x="526" y="276" type="line"/>
      <point x="526" y="385" type="line"/>
      <point x="45" y="385" type="line"/>
    </contour>
  </outline>
</glyph>
<glyph name="currency" format="1">
  <advance width="656"/>
  <unicode hex="00A4"/>
  <outline>
    <contour>
      <point x="328" y="130" type="curve" smooth="yes"/>
      <point x="495" y="130"/>
      <point x="595" y="217"/>
      <point x="595" y="347" type="curve" smooth="yes"/>
      <point x="595" y="477"/>
      <point x="495" y="564"/>
      <point x="328" y="564" type="curve" smooth="yes"/>
      <point x="161" y="564"/>
      <point x="61" y="477"/>
      <point x="61" y="347" type="curve" smooth="yes"/>
      <point x="61" y="217"/>
      <point x="161" y="130"/>
    </contour>
    <contour>
      <point x="150" y="50" type="line"/>
      <point x="233" y="171" type="line"/>
      <point x="149" y="238" type="line"/>
      <point x="60" y="110" type="line"/>
    </contour>
    <contour>
      <point x="506" y="50" type="line"/>
      <point x="596" y="110" type="line"/>
      <point x="508" y="238" type="line"/>
      <point x="423" y="171" type="line"/>
    </contour>
    <contour>
      <point x="328" y="246" type="curve" smooth="yes"/>
      <point x="252" y="246"/>
      <point x="219" y="281"/>
      <point x="219" y="344" type="curve" smooth="yes"/>
      <point x="219" y="350" type="line" smooth="yes"/>
      <point x="219" y="413"/>
      <point x="252" y="448"/>
      <point x="328" y="448" type="curve" smooth="yes"/>
      <point x="405" y="448"/>
      <point x="437" y="413"/>
      <point x="437" y="350" type="curve" smooth="yes"/>
      <point x="437" y="344" type="line" smooth="yes"/>
      <point x="437" y="281"/>
      <point x="405" y="246"/>
    </contour>
    <contour>
      <point x="149" y="455" type="line"/>
      <point x="233" y="522" type="line"/>
      <point x="150" y="643" type="line"/>
      <point x="60" y="583" type="line"/>
    </contour>
    <contour>
      <point x="508" y="455" type="line"/>
      <point x="596" y="583" type="line"/>
      <point x="506" y="643" type="line"/>
      <point x="423" y="522" type="line"/>
    </contour>
  </outline>
</glyph>
<glyph name="yen" format="1">
  <advance width="736"/>
  <unicode hex="00A5"/>
  <outline>
    <contour>
      <point x="287" y="0" type="line"/>
      <point x="449" y="0" type="line"/>
      <point x="449" y="261" type="line"/>
      <point x="731" y="690" type="line"/>
      <point x="564" y="690" type="line"/>
      <point x="391" y="415" type="line"/>
      <point x="353" y="415" type="line"/>
      <point x="179" y="690" type="line"/>
      <point x="5" y="690" type="line"/>
      <point x="287" y="261" type="line"/>
    </contour>
    <contour>
      <point x="100" y="141" type="line"/>
      <point x="636" y="141" type="line"/>
      <point x="636" y="235" type="line"/>
      <point x="100" y="235" type="line"/>
    </contour>
    <contour>
      <point x="100" y="276" type="line"/>
      <point x="636" y="276" type="line"/>
      <point x="636" y="370" type="line"/>
      <point x="100" y="370" type="line"/>
    </contour>
  </outline>
</glyph>
<glyph name="brokenbar" format="1">
  <advance width="305"/>
  <unicode hex="00A6"/>
  <outline>
    <contour>
      <point x="81" y="400" type="line"/>
      <point x="225" y="400" type="line"/>
      <point x="225" y="782" type="line"/>
      <point x="81" y="782" type="line"/>
    </contour>
    <contour>
      <point x="81" y="-92" type="line"/>
      <point x="225" y="-92" type="line"/>
      <point x="225" y="290" type="line"/>
      <point x="81" y="290" type="line"/>
    </contour>
  </outline>
</glyph>
<glyph name="section" format="1">
  <advance width="681"/>
  <unicode hex="00A7"/>
  <outline>
    <contour>
      <point x="334" y="-102" type="curve" smooth="yes"/>
      <point x="526" y="-102"/>
      <point x="622" y="-36"/>
      <point x="622" y="79" type="curve" smooth="yes"/>
      <point x="622" y="124"/>
      <point x="593" y="182"/>
      <point x="530" y="195" type="curve"/>
      <point x="530" y="233" type="line"/>
      <point x="603" y="236"/>
      <point x="641" y="276"/>
      <point x="641" y="324" type="curve" smooth="yes"/>
      <point x="641" y="385"/>
      <point x="587" y="433"/>
      <point x="459" y="446" type="curve" smooth="yes"/>
      <point x="283" y="464" type="line" smooth="yes"/>
      <point x="236" y="469"/>
      <point x="215" y="484"/>
      <point x="215" y="521" type="curve" smooth="yes"/>
      <point x="215" y="567"/>
      <point x="256" y="588"/>
      <point x="339" y="588" type="curve" smooth="yes"/>
      <point x="427" y="588"/>
      <point x="469" y="552"/>
      <point x="469" y="520" type="curve" smooth="yes"/>
      <point x="469" y="518" type="line"/>
      <point x="627" y="518" type="line"/>
      <point x="604" y="641"/>
      <point x="517" y="700"/>
      <point x="339" y="700" type="curve" smooth="yes"/>
      <point x="150" y="700"/>
      <point x="55" y="627"/>
      <point x="55" y="521" type="curve" smooth="yes"/>
      <point x="55" y="458"/>
      <point x="92" y="416"/>
      <point x="157" y="403" type="curve"/>
      <point x="157" y="365" type="line"/>
      <point x="83" y="362"/>
      <point x="45" y="317"/>
      <point x="45" y="267" type="curve" smooth="yes"/>
      <point x="45" y="202"/>
      <point x="99" y="165"/>
      <point x="223" y="152" type="curve" smooth="yes"/>
      <point x="392" y="134" type="line" smooth="yes"/>
      <point x="441" y="128"/>
      <point x="461" y="108"/>
      <point x="461" y="74" type="curve" smooth="yes"/>
      <point x="461" y="29"/>
      <point x="418" y="10"/>
      <point x="343" y="10" type="curve" smooth="yes"/>
      <point x="245" y="10"/>
      <point x="205" y="42"/>
      <point x="205" y="78" type="curve" smooth="yes"/>
      <point x="205" y="80" type="line"/>
      <point x="47" y="80" type="line"/>
      <point x="70" y="-46"/>
      <point x="159" y="-102"/>
    </contour>
    <contour>
      <point x="451" y="237" type="curve"/>
      <point x="272" y="257" type="line" smooth="yes"/>
      <point x="229" y="262"/>
      <point x="205" y="278"/>
      <point x="205" y="309" type="curve" smooth="yes"/>
      <point x="205" y="333"/>
      <point x="216" y="350"/>
      <point x="235" y="360" type="curve"/>
      <point x="414" y="341" type="line" smooth="yes"/>
      <point x="457" y="336"/>
      <point x="481" y="320"/>
      <point x="481" y="289" type="curve" smooth="yes"/>
      <point x="481" y="264"/>
      <point x="470" y="248"/>
    </contour>
  </outline>
</glyph>
<glyph name="ordfeminine" format="1">
  <advance width="505"/>
  <unicode hex="00AA"/>
  <note>
ordfeminine
</note>
  <outline>
    <contour>
      <point x="170" y="353" type="curve" smooth="yes"/>
      <point x="227" y="353"/>
      <point x="261" y="376"/>
      <point x="274" y="433" type="curve"/>
      <point x="303" y="433" type="line"/>
      <point x="303" y="422" type="line" smooth="yes"/>
      <point x="303" y="384"/>
      <point x="328" y="359"/>
      <point x="376" y="359" type="curve" smooth="yes"/>
      <point x="456" y="359" type="line"/>
      <point x="456" y="444" type="line"/>
      <point x="418" y="444" type="line"/>
      <point x="418" y="557" type="line" smooth="yes"/>
      <point x="418" y="647"/>
      <point x="356" y="696"/>
      <point x="240" y="696" type="curve" smooth="yes"/>
      <point x="135" y="696"/>
      <point x="72" y="655"/>
      <point x="58" y="581" type="curve"/>
      <point x="184" y="581" type="line"/>
      <point x="184" y="581" type="line"/>
      <point x="184" y="600"/>
      <point x="205" y="612"/>
      <point x="237" y="612" type="curve" smooth="yes"/>
      <point x="274" y="612"/>
      <point x="289" y="596"/>
      <point x="289" y="556" type="curve" smooth="yes"/>
      <point x="289" y="534" type="line"/>
      <point x="289" y="525" type="line"/>
      <point x="289" y="482" type="line" smooth="yes"/>
      <point x="289" y="453"/>
      <point x="270" y="440"/>
      <point x="230" y="440" type="curve" smooth="yes"/>
      <point x="197" y="440"/>
      <point x="179" y="450"/>
      <point x="179" y="468" type="curve" smooth="yes"/>
      <point x="179" y="469" type="line" smooth="yes"/>
      <point x="179" y="485"/>
      <point x="191" y="493"/>
      <point x="219" y="496" type="curve" smooth="yes"/>
      <point x="289" y="501" type="line"/>
      <point x="289" y="556" type="line"/>
      <point x="187" y="548" type="line" smooth="yes"/>
      <point x="91" y="540"/>
      <point x="48" y="510"/>
      <point x="48" y="451" type="curve" smooth="yes"/>
      <point x="48" y="391"/>
      <point x="95" y="353"/>
    </contour>
    <contour>
      <point x="242" y="690" type="move" name="top"/>
    </contour>
  </outline>
</glyph>
<glyph name="guillemetleft" format="1">
  <advance width="623"/>
  <unicode hex="00AB"/>
  <outline>
    <contour>
      <point x="436" y="82" type="line"/>
      <point x="579" y="82" type="line"/>
      <point x="415" y="274" type="line"/>
      <point x="415" y="294" type="line"/>
      <point x="579" y="486" type="line"/>
      <point x="436" y="486" type="line"/>
      <point x="274" y="311" type="line"/>
      <point x="274" y="257" type="line"/>
    </contour>
    <contour>
      <point x="206" y="82" type="line"/>
      <point x="349" y="82" type="line"/>
      <point x="185" y="274" type="line"/>
      <point x="185" y="294" type="line"/>
      <point x="349" y="486" type="line"/>
      <point x="206" y="486" type="line"/>
      <point x="44" y="311" type="line"/>
      <point x="44" y="257" type="line"/>
    </contour>
  </outline>
</glyph>
<glyph name="logicalnot" format="1">
  <advance width="532"/>
  <unicode hex="00AC"/>
  <outline>
    <contour>
      <point x="387" y="135" type="line"/>
      <point x="503" y="135" type="line"/>
      <point x="503" y="391" type="line"/>
      <point x="23" y="391" type="line"/>
      <point x="23" y="283" type="line"/>
      <point x="465" y="283" type="line"/>
      <point x="387" y="359" type="line"/>
    </contour>
  </outline>
</glyph>
<glyph name="macron" format="1">
  <advance width="400"/>
  <unicode hex="00AF"/>
  <outline>
    <contour>
      <point x="26" y="577" type="line"/>
      <point x="374" y="577" type="line"/>
      <point x="374" y="674" type="line"/>
      <point x="26" y="674" type="line"/>
    </contour>
    <contour>
      <point x="200" y="534" type="move" name="_top"/>
    </contour>
  </outline>
</glyph>
<glyph name="degree" format="1">
  <advance width="430"/>
  <unicode hex="00B0"/>
  <outline>
    <contour>
      <point x="215" y="371" type="curve" smooth="yes"/>
      <point x="333" y="371"/>
      <point x="407" y="434"/>
      <point x="407" y="535" type="curve" smooth="yes"/>
      <point x="407" y="636"/>
      <point x="333" y="699"/>
      <point x="215" y="699" type="curve" smooth="yes"/>
      <point x="97" y="699"/>
      <point x="23" y="636"/>
      <point x="23" y="535" type="curve" smooth="yes"/>
      <point x="23" y="434"/>
      <point x="97" y="371"/>
    </contour>
    <contour>
      <point x="215" y="453" type="curve" smooth="yes"/>
      <point x="161" y="453"/>
      <point x="135" y="480"/>
      <point x="135" y="535" type="curve" smooth="yes"/>
      <point x="135" y="537" type="line" smooth="yes"/>
      <point x="135" y="591"/>
      <point x="161" y="617"/>
      <point x="215" y="617" type="curve" smooth="yes"/>
      <point x="269" y="617"/>
      <point x="295" y="590"/>
      <point x="295" y="536" type="curve" smooth="yes"/>
      <point x="295" y="534" type="line" smooth="yes"/>
      <point x="295" y="480"/>
      <point x="269" y="453"/>
    </contour>
  </outline>
</glyph>
<glyph name="onesuperior" format="1">
  <advance width="394"/>
  <unicode hex="00B9"/>
  <note>
onesuperior
</note>
  <outline>
    <contour>
      <point x="73" y="368" type="line"/>
      <point x="339" y="368" type="line"/>
      <point x="339" y="443" type="line"/>
      <point x="263" y="443" type="line"/>
      <point x="263" y="690" type="line"/>
      <point x="183" y="690" type="line"/>
      <point x="75" y="644" type="line"/>
      <point x="75" y="569" type="line"/>
      <point x="149" y="597" type="line"/>
      <point x="149" y="443" type="line"/>
      <point x="73" y="443" type="line"/>
    </contour>
  </outline>
</glyph>
<glyph name="ordmasculine" format="1">
  <advance width="501"/>
  <unicode hex="00BA"/>
  <note>
ordmasculine
</note>
  <outline>
    <contour>
      <point x="250" y="353" type="curve" smooth="yes"/>
      <point x="377" y="353"/>
      <point x="456" y="420"/>
      <point x="456" y="525" type="curve" smooth="yes"/>
      <point x="456" y="629"/>
      <point x="377" y="696"/>
      <point x="250" y="696" type="curve" smooth="yes"/>
      <point x="124" y="696"/>
      <point x="44" y="630"/>
      <point x="44" y="525" type="curve" smooth="yes"/>
      <point x="44" y="420"/>
      <point x="123" y="353"/>
    </contour>
    <contour>
      <point x="250" y="444" type="curve" smooth="yes"/>
      <point x="201" y="444"/>
      <point x="178" y="468"/>
      <point x="178" y="522" type="curve" smooth="yes"/>
      <point x="178" y="527" type="line" smooth="yes"/>
      <point x="178" y="581"/>
      <point x="201" y="606"/>
      <point x="250" y="606" type="curve" smooth="yes"/>
      <point x="299" y="606"/>
      <point x="322" y="581"/>
      <point x="322" y="527" type="curve" smooth="yes"/>
      <point x="322" y="522" type="line" smooth="yes"/>
      <point x="322" y="468"/>
      <point x="299" y="444"/>
    </contour>
    <contour>
      <point x="250" y="690" type="move" name="top"/>
    </contour>
  </outline>
</glyph>
<glyph name="guillemetright" format="1">
  <advance width="623"/>
  <unicode hex="00BB"/>
  <outline>
    <contour>
      <point x="187" y="486" type="line"/>
      <point x="44" y="486" type="line"/>
      <point x="208" y="294" type="line"/>
      <point x="208" y="274" type="line"/>
      <point x="44" y="82" type="line"/>
      <point x="187" y="82" type="line"/>
      <point x="349" y="257" type="line"/>
      <point x="349" y="311" type="line"/>
    </contour>
    <contour>
      <point x="417" y="486" type="line"/>
      <point x="274" y="486" type="line"/>
      <point x="438" y="294" type="line"/>
      <point x="438" y="274" type="line"/>
      <point x="274" y="82" type="line"/>
      <point x="417" y="82" type="line"/>
      <point x="579" y="257" type="line"/>
      <point x="579" y="311" type="line"/>
    </contour>
  </outline>
</glyph>
<glyph name="questiondown" format="1">
  <advance width="638"/>
  <unicode hex="00BF"/>
  <outline>
    <contour>
      <point x="390" y="292" type="curve" smooth="yes"/>
      <point x="385" y="330" type="line"/>
      <point x="296" y="330" type="line"/>
      <point x="293" y="304" type="line" smooth="yes"/>
      <point x="289" y="275"/>
      <point x="278" y="264"/>
      <point x="236" y="253" type="curve" smooth="yes"/>
      <point x="76" y="212"/>
      <point x="23" y="157"/>
      <point x="23" y="51" type="curve" smooth="yes"/>
      <point x="23" y="51" type="line" smooth="yes"/>
      <point x="23" y="-86"/>
      <point x="147" y="-166"/>
      <point x="325" y="-166" type="curve" smooth="yes"/>
      <point x="498" y="-166"/>
      <point x="601" y="-93"/>
      <point x="626" y="66" type="curve"/>
      <point x="466" y="66" type="line"/>
      <point x="466" y="66" type="line" smooth="yes"/>
      <point x="466" y="-4"/>
      <point x="413" y="-47"/>
      <point x="322" y="-47" type="curve" smooth="yes"/>
      <point x="244" y="-47"/>
      <point x="187" y="-20"/>
      <point x="187" y="44" type="curve" smooth="yes"/>
      <point x="187" y="44" type="line" smooth="yes"/>
      <point x="187" y="87"/>
      <point x="210" y="115"/>
      <point x="279" y="132" type="curve" smooth="yes"/>
      <point x="373" y="156"/>
      <point x="406" y="199"/>
    </contour>
    <contour>
      <point x="424" y="534" type="line"/>
      <point x="256" y="534" type="line"/>
      <point x="256" y="373" type="line"/>
      <point x="424" y="373" type="line"/>
    </contour>
  </outline>
</glyph>
<glyph name="Thorn" format="1">
  <advance width="756"/>
  <unicode hex="00DE"/>
  <note>
Thorn
</note>
  <outline>
    <contour>
      <point x="208" y="145" type="line"/>
      <point x="471" y="145" type="line" smooth="yes"/>
      <point x="633" y="145"/>
      <point x="721" y="219"/>
      <point x="721" y="352" type="curve" smooth="yes"/>
      <point x="721" y="485"/>
      <point x="633" y="559"/>
      <point x="471" y="559" type="curve" smooth="yes"/>
      <point x="208" y="559" type="line"/>
      <point x="208" y="454" type="line"/>
      <point x="458" y="454" type="line" smooth="yes"/>
      <point x="523" y="454"/>
      <point x="554" y="422"/>
      <point x="554" y="355" type="curve" smooth="yes"/>
      <point x="554" y="349" type="line" smooth="yes"/>
      <point x="554" y="282"/>
      <point x="523" y="250"/>
      <point x="458" y="250" type="curve" smooth="yes"/>
      <point x="208" y="250" type="line"/>
    </contour>
    <contour>
      <point x="114" y="0" type="line"/>
      <point x="277" y="0" type="line"/>
      <point x="277" y="690" type="line"/>
      <point x="37" y="690" type="line"/>
      <point x="37" y="578" type="line"/>
      <point x="114" y="578" type="line"/>
    </contour>
  </outline>
</glyph>
<glyph name="germandbls" format="1">
  <advance width="709"/>
  <unicode hex="00DF"/>
  <note>
germandbls
</note>
  <outline>
    <contour>
      <point x="90" y="452" type="curve" smooth="yes"/>
      <point x="90" y="0" type="line"/>
      <point x="249" y="0" type="line"/>
      <point x="249" y="477" type="line" smooth="yes"/>
      <point x="249" y="547"/>
      <point x="292" y="584"/>
      <point x="372" y="584" type="curve" smooth="yes"/>
      <point x="445" y="584"/>
      <point x="484" y="554"/>
      <point x="484" y="499" type="curve" smooth="yes"/>
      <point x="484" y="497" type="line" smooth="yes"/>
      <point x="484" y="440"/>
      <point x="453" y="412"/>
      <point x="388" y="412" type="curve" smooth="yes"/>
      <point x="337" y="412" type="line"/>
      <point x="337" y="308" type="line"/>
      <point x="392" y="308" type="line" smooth="yes"/>
      <point x="469" y="308"/>
      <point x="506" y="276"/>
      <point x="506" y="209" type="curve" smooth="yes"/>
      <point x="506" y="207" type="line" smooth="yes"/>
      <point x="506" y="140"/>
      <point x="469" y="108"/>
      <point x="392" y="108" type="curve" smooth="yes"/>
      <point x="317" y="108" type="line"/>
      <point x="317" y="0" type="line"/>
      <point x="403" y="0" type="line" smooth="yes"/>
      <point x="575" y="0"/>
      <point x="669" y="68"/>
      <point x="669" y="192" type="curve" smooth="yes"/>
      <point x="669" y="281"/>
      <point x="620" y="333"/>
      <point x="530" y="341" type="curve"/>
      <point x="530" y="379" type="line"/>
      <point x="606" y="386"/>
      <point x="647" y="433"/>
      <point x="647" y="513" type="curve" smooth="yes"/>
      <point x="647" y="628"/>
      <point x="541" y="700"/>
      <point x="372" y="700" type="curve" smooth="yes"/>
      <point x="190" y="700"/>
      <point x="90" y="612"/>
    </contour>
    <contour>
      <point x="19" y="426" type="line"/>
      <point x="180" y="426" type="line"/>
      <point x="180" y="534" type="line"/>
      <point x="19" y="534" type="line"/>
    </contour>
  </outline>
</glyph>
<glyph name="ccedilla" format="1">
  <advance width="660"/>
  <unicode hex="00E7"/>
  <note>
ccedilla
</note>
  <outline>
    <component base="c"/>
    <component base="cedillacomb" xOffset="136"/>
    <contour>
      <point x="336" y="0" type="move" name="bottom"/>
    </contour>
    <contour>
      <point x="336" y="534" type="move" name="top"/>
    </contour>
  </outline>
</glyph>
<glyph name="eogonek" format="1">
  <advance width="668"/>
  <unicode hex="0119"/>
  <outline>
    <contour>
      <point x="338" y="-10" type="curve" smooth="yes"/>
      <point x="488" y="-10"/>
      <point x="589" y="58"/>
      <point x="620" y="172" type="curve"/>
      <point x="455" y="172" type="line"/>
      <point x="455" y="172" type="line"/>
      <point x="455" y="153"/>
      <point x="425" y="106"/>
      <point x="338" y="106" type="curve" smooth="yes"/>
      <point x="247" y="106"/>
      <point x="206" y="156"/>
      <point x="206" y="264" type="curve" smooth="yes"/>
      <point x="206" y="273" type="line" smooth="yes"/>
      <point x="206" y="382"/>
      <point x="247" y="432"/>
      <point x="338" y="432" type="curve" smooth="yes"/>
      <point x="429" y="432"/>
      <point x="470" y="382"/>
      <point x="470" y="273" type="curve" smooth="yes"/>
      <point x="470" y="270" type="line"/>
      <point x="575" y="331" type="line"/>
      <point x="142" y="331" type="line"/>
      <point x="142" y="237" type="line"/>
      <point x="629" y="237" type="line"/>
      <point x="629" y="287" type="line" smooth="yes"/>
      <point x="629" y="445"/>
      <point x="519" y="544"/>
      <point x="338" y="544" type="curve" smooth="yes"/>
      <point x="154" y="544"/>
      <point x="39" y="437"/>
      <point x="39" y="267" type="curve" smooth="yes"/>
      <point x="39" y="97"/>
      <point x="154" y="-10"/>
    </contour>
    <contour>
      <point x="411" y="-148" type="curve" smooth="yes"/>
      <point x="559" y="-148" type="line"/>
      <point x="559" y="-64" type="line"/>
      <point x="465" y="-64" type="line" smooth="yes"/>
      <point x="448" y="-64"/>
      <point x="441" y="-57"/>
      <point x="441" y="-45" type="curve" smooth="yes"/>
      <point x="441" y="-26"/>
      <point x="463" y="-3"/>
      <point x="514" y="32" type="curve"/>
      <point x="412" y="16" type="line"/>
      <point x="412" y="-28" type="line"/>
      <point x="355" y="-34"/>
      <point x="329" y="-52"/>
      <point x="329" y="-88" type="curve" smooth="yes"/>
      <point x="329" y="-127"/>
      <point x="358" y="-148"/>
    </contour>
    <contour>
      <point x="430" y="0" type="move" name="ogonek"/>
    </contour>
    <contour>
      <point x="338" y="534" type="move" name="top"/>
    </contour>
  </outline>
</glyph>
<glyph name="idotless" format="1">
  <advance width="313"/>
  <unicode hex="0131"/>
  <outline>
    <contour>
      <point x="83" y="0" type="line"/>
      <point x="242" y="0" type="line"/>
      <point x="242" y="534" type="line"/>
      <point x="13" y="534" type="line"/>
      <point x="13" y="426" type="line"/>
      <point x="83" y="426" type="line"/>
    </contour>
    <contour>
      <point x="161" y="534" type="move" name="top"/>
    </contour>
  </outline>
</glyph>
<glyph name="IJ" format="1">
  <advance width="838"/>
  <unicode hex="0132"/>
  <outline>
    <contour>
      <point x="440" y="-10" type="curve" smooth="yes"/>
      <point x="648" y="-10"/>
      <point x="758" y="94"/>
      <point x="758" y="284" type="curve" smooth="yes"/>
      <point x="758" y="690" type="line"/>
      <point x="595" y="690" type="line"/>
      <point x="595" y="284" type="line" smooth="yes"/>
      <point x="595" y="165"/>
      <point x="547" y="110"/>
      <point x="440" y="110" type="curve" smooth="yes"/>
      <point x="334" y="110"/>
      <point x="284" y="165"/>
      <point x="284" y="283" type="curve" smooth="yes"/>
      <point x="284" y="288" type="line"/>
      <point x="122" y="288" type="line"/>
      <point x="122" y="283" type="line" smooth="yes"/>
      <point x="122" y="94"/>
      <point x="233" y="-10"/>
    </contour>
    <contour>
      <point x="63" y="322" type="line"/>
      <point x="343" y="322" type="line"/>
      <point x="343" y="431" type="line"/>
      <point x="279" y="431" type="line"/>
      <point x="279" y="578" type="line"/>
      <point x="343" y="578" type="line"/>
      <point x="343" y="690" type="line"/>
      <point x="63" y="690" type="line"/>
      <point x="63" y="578" type="line"/>
      <point x="127" y="578" type="line"/>
      <point x="127" y="431" type="line"/>
      <point x="63" y="431" type="line"/>
    </contour>
    <contour>
      <point x="463" y="578" type="line"/>
      <point x="646" y="578" type="line"/>
      <point x="646" y="690" type="line"/>
      <point x="463" y="690" type="line"/>
    </contour>
  </outline>
</glyph>
<glyph name="Lslash" format="1">
  <advance width="710"/>
  <unicode hex="0141"/>
  <note>
Lslash
</note>
  <outline>
    <contour>
      <point x="40" y="150" type="line"/>
      <point x="447" y="354" type="line"/>
      <point x="447" y="466" type="line"/>
      <point x="40" y="262" type="line"/>
    </contour>
    <contour>
      <point x="117" y="0" type="line"/>
      <point x="675" y="0" type="line"/>
      <point x="675" y="211" type="line"/>
      <point x="542" y="211" type="line"/>
      <point x="542" y="112" type="line"/>
      <point x="280" y="112" type="line"/>
      <point x="280" y="578" type="line"/>
      <point x="357" y="578" type="line"/>
      <point x="357" y="690" type="line"/>
      <point x="40" y="690" type="line"/>
      <point x="40" y="578" type="line"/>
      <point x="117" y="578" type="line"/>
    </contour>
  </outline>
</glyph>
<glyph name="lslash" format="1">
  <advance width="379"/>
  <unicode hex="0142"/>
  <note>
lslash
</note>
  <outline>
    <contour>
      <point x="34" y="236" type="line"/>
      <point x="342" y="390" type="line"/>
      <point x="342" y="498" type="line"/>
      <point x="34" y="344" type="line"/>
    </contour>
    <contour>
      <point x="108" y="0" type="line"/>
      <point x="268" y="0" type="line"/>
      <point x="268" y="690" type="line"/>
      <point x="38" y="690" type="line"/>
      <point x="38" y="582" type="line"/>
      <point x="108" y="582" type="line"/>
    </contour>
  </outline>
</glyph>
<glyph name="oe" format="1">
  <advance width="1140"/>
  <unicode hex="0153"/>
  <note>
oe
</note>
  <outline>
    <contour>
      <point x="341" y="-10" type="curve" smooth="yes"/>
      <point x="450" y="-10"/>
      <point x="528" y="27"/>
      <point x="558" y="90" type="curve"/>
      <point x="596" y="90" type="line"/>
      <point x="626" y="27"/>
      <point x="703" y="-10"/>
      <point x="810" y="-10" type="curve" smooth="yes"/>
      <point x="958" y="-10"/>
      <point x="1060" y="58"/>
      <point x="1091" y="172" type="curve"/>
      <point x="926" y="172" type="line"/>
      <point x="926" y="172" type="line"/>
      <point x="926" y="153"/>
      <point x="896" y="106"/>
      <point x="810" y="106" type="curve" smooth="yes"/>
      <point x="719" y="106"/>
      <point x="678" y="156"/>
      <point x="678" y="264" type="curve" smooth="yes"/>
      <point x="678" y="273" type="line" smooth="yes"/>
      <point x="678" y="382"/>
      <point x="719" y="432"/>
      <point x="810" y="432" type="curve" smooth="yes"/>
      <point x="900" y="432"/>
      <point x="941" y="382"/>
      <point x="941" y="273" type="curve" smooth="yes"/>
      <point x="941" y="270" type="line"/>
      <point x="981" y="331" type="line"/>
      <point x="614" y="331" type="line"/>
      <point x="614" y="237" type="line"/>
      <point x="1100" y="237" type="line"/>
      <point x="1100" y="287" type="line" smooth="yes"/>
      <point x="1100" y="445"/>
      <point x="988" y="544"/>
      <point x="810" y="544" type="curve" smooth="yes"/>
      <point x="704" y="544"/>
      <point x="626" y="507"/>
      <point x="596" y="444" type="curve"/>
      <point x="558" y="444" type="line"/>
      <point x="528" y="507"/>
      <point x="449" y="544"/>
      <point x="341" y="544" type="curve" smooth="yes"/>
      <point x="155" y="544"/>
      <point x="39" y="437"/>
      <point x="39" y="267" type="curve" smooth="yes"/>
      <point x="39" y="97"/>
      <point x="155" y="-10"/>
    </contour>
    <contour>
      <point x="341" y="106" type="curve" smooth="yes"/>
      <point x="248" y="106"/>
      <point x="205" y="156"/>
      <point x="205" y="264" type="curve" smooth="yes"/>
      <point x="205" y="270" type="line" smooth="yes"/>
      <point x="205" y="378"/>
      <point x="248" y="428"/>
      <point x="341" y="428" type="curve" smooth="yes"/>
      <point x="433" y="428"/>
      <point x="476" y="378"/>
      <point x="476" y="270" type="curve" smooth="yes"/>
      <point x="476" y="264" type="line" smooth="yes"/>
      <point x="476" y="156"/>
      <point x="433" y="106"/>
    </contour>
  </outline>
</glyph>
<glyph name="florin" format="1">
  <advance width="528"/>
  <unicode hex="0192"/>
  <outline>
    <contour>
      <point x="52" y="0" type="line"/>
      <point x="244" y="0" type="line" smooth="yes"/>
      <point x="305" y="0"/>
      <point x="338" y="33"/>
      <point x="338" y="94" type="curve" smooth="yes"/>
      <point x="338" y="578" type="line"/>
      <point x="484" y="578" type="line"/>
      <point x="484" y="690" type="line"/>
      <point x="272" y="690" type="line" smooth="yes"/>
      <point x="211" y="690"/>
      <point x="178" y="657"/>
      <point x="178" y="596" type="curve" smooth="yes"/>
      <point x="178" y="112" type="line"/>
      <point x="52" y="112" type="line"/>
    </contour>
    <contour>
      <point x="52" y="366" type="line"/>
      <point x="484" y="366" type="line"/>
      <point x="484" y="464" type="line"/>
      <point x="52" y="464" type="line"/>
    </contour>
  </outline>
</glyph>
<glyph name="jdotless" format="1">
  <advance width="313"/>
  <unicode hex="0237"/>
  <outline>
    <contour>
      <point x="5" y="-132" type="line"/>
      <point x="148" y="-132" type="line" smooth="yes"/>
      <point x="209" y="-132"/>
      <point x="242" y="-99"/>
      <point x="242" y="-38" type="curve" smooth="yes"/>
      <point x="242" y="534" type="line"/>
      <point x="13" y="534" type="line"/>
      <point x="13" y="426" type="line"/>
      <point x="83" y="426" type="line"/>
      <point x="83" y="-24" type="line"/>
      <point x="5" y="-24" type="line"/>
    </contour>
    <contour>
      <point x="161" y="534" type="move" name="top"/>
    </contour>
  </outline>
</glyph>
<glyph name="breve" format="1">
  <advance width="400"/>
  <unicode hex="02D8"/>
  <outline>
    <contour>
      <point x="200" y="570" type="curve" smooth="yes"/>
      <point x="308" y="570"/>
      <point x="372" y="617"/>
      <point x="386" y="706" type="curve"/>
      <point x="258" y="706" type="line"/>
      <point x="258" y="706" type="line"/>
      <point x="258" y="678"/>
      <point x="236" y="660"/>
      <point x="200" y="660" type="curve" smooth="yes"/>
      <point x="164" y="660"/>
      <point x="142" y="678"/>
      <point x="142" y="706" type="curve"/>
      <point x="142" y="706" type="line"/>
      <point x="14" y="706" type="line"/>
      <point x="28" y="617"/>
      <point x="92" y="570"/>
    </contour>
    <contour>
      <point x="200" y="534" type="move" name="_top"/>
    </contour>
  </outline>
</glyph>
<glyph name="circumflexcomb" format="1">
  <advance width="0"/>
  <unicode hex="0302"/>
  <note>
circumflex
</note>
  <outline>
    <contour>
      <point x="3" y="574" type="line"/>
      <point x="131" y="574" type="line"/>
      <point x="181" y="616" type="line"/>
      <point x="219" y="616" type="line"/>
      <point x="269" y="574" type="line"/>
      <point x="397" y="574" type="line"/>
      <point x="285" y="706" type="line"/>
      <point x="115" y="706" type="line"/>
    </contour>
    <contour>
      <point x="200" y="534" type="move" name="_top"/>
    </contour>
  </outline>
</glyph>
<glyph name="Germandbls" format="1">
  <advance width="794"/>
  <unicode hex="1E9E"/>
  <outline>
    <contour>
      <point x="114" y="0" type="line"/>
      <point x="276" y="0" type="line"/>
      <point x="276" y="578" type="line"/>
      <point x="543" y="578" type="line"/>
      <point x="406" y="413" type="line"/>
      <point x="406" y="309" type="line"/>
      <point x="471" y="309" type="line" smooth="yes"/>
      <point x="549" y="309"/>
      <point x="586" y="278"/>
      <point x="586" y="211" type="curve" smooth="yes"/>
      <point x="586" y="209" type="line" smooth="yes"/>
      <point x="586" y="143"/>
      <point x="549" y="112"/>
      <point x="471" y="112" type="curve" smooth="yes"/>
      <point x="345" y="112" type="line"/>
      <point x="345" y="0" type="line"/>
      <point x="483" y="0" type="line" smooth="yes"/>
      <point x="657" y="0"/>
      <point x="752" y="74"/>
      <point x="752" y="210" type="curve" smooth="yes"/>
      <point x="752" y="344"/>
      <point x="659" y="413"/>
      <point x="483" y="413" type="curve" smooth="yes"/>
      <point x="453" y="413" type="line"/>
      <point x="531" y="338" type="line"/>
      <point x="728" y="578" type="line"/>
      <point x="728" y="690" type="line"/>
      <point x="37" y="690" type="line"/>
      <point x="37" y="578" type="line"/>
      <point x="114" y="578" type="line"/>
    </contour>
  </outline>
</glyph>
<glyph name="emdash" format="1">
  <advance width="905"/>
  <unicode hex="2014"/>
  <outline>
    <contour>
      <point x="65" y="230" type="line"/>
      <point x="840" y="230" type="line"/>
      <point x="840" y="338" type="line"/>
      <point x="65" y="338" type="line"/>
    </contour>
  </outline>
</glyph>
<glyph name="dagger" format="1">
  <advance width="471"/>
  <unicode hex="2020"/>
  <outline>
    <contour>
      <point x="24" y="435" type="line"/>
      <point x="448" y="435" type="line"/>
      <point x="448" y="537" type="line"/>
      <point x="356" y="537" type="line"/>
      <point x="283" y="494" type="line"/>
      <point x="276" y="500" type="line"/>
      <point x="301" y="592" type="line"/>
      <point x="301" y="690" type="line"/>
      <point x="171" y="690" type="line"/>
      <point x="171" y="592" type="line"/>
      <point x="196" y="500" type="line"/>
      <point x="189" y="494" type="line"/>
      <point x="116" y="537" type="line"/>
      <point x="24" y="537" type="line"/>
    </contour>
    <contour>
      <point x="192" y="0" type="line"/>
      <point x="280" y="0" type="line"/>
      <point x="308" y="326" type="line"/>
      <point x="280" y="450" type="line"/>
      <point x="192" y="450" type="line"/>
      <point x="163" y="326" type="line"/>
    </contour>
  </outline>
</glyph>
<glyph name="fraction" format="1">
  <advance width="40"/>
  <unicode hex="2044"/>
  <note>
fraction
</note>
  <outline>
    <contour>
      <point x="-308" y="0" type="line"/>
      <point x="-179" y="0" type="line"/>
      <point x="7" y="322" type="line"/>
      <point x="-123" y="322" type="line"/>
    </contour>
    <contour>
      <point x="33" y="368" type="line"/>
      <point x="163" y="368" type="line"/>
      <point x="348" y="690" type="line"/>
      <point x="219" y="690" type="line"/>
    </contour>
  </outline>
</glyph>
<glyph name="literSign" format="1">
  <advance width="684"/>
  <unicode hex="2113"/>
  <outline>
    <contour>
      <point x="382" y="-10" type="curve" smooth="yes"/>
      <point x="518" y="-10"/>
      <point x="611" y="58"/>
      <point x="639" y="172" type="curve"/>
      <point x="475" y="172" type="line"/>
      <point x="475" y="172" type="line"/>
      <point x="475" y="153"/>
      <point x="453" y="106"/>
      <point x="382" y="106" type="curve" smooth="yes"/>
      <point x="305" y="106"/>
      <point x="276" y="163"/>
      <point x="276" y="316" type="curve" smooth="yes"/>
      <point x="276" y="374" type="line" smooth="yes"/>
      <point x="276" y="527"/>
      <point x="307" y="584"/>
      <point x="387" y="584" type="curve" smooth="yes"/>
      <point x="453" y="584"/>
      <point x="489" y="545"/>
      <point x="489" y="482" type="curve" smooth="yes"/>
      <point x="489" y="480" type="line" smooth="yes"/>
      <point x="489" y="427"/>
      <point x="461" y="396"/>
      <point x="383" y="367" type="curve" smooth="yes"/>
      <point x="40" y="237" type="line"/>
      <point x="40" y="131" type="line"/>
      <point x="459" y="291" type="line" smooth="yes"/>
      <point x="596" y="344"/>
      <point x="648" y="399"/>
      <point x="648" y="494" type="curve" smooth="yes"/>
      <point x="648" y="617"/>
      <point x="547" y="700"/>
      <point x="387" y="700" type="curve" smooth="yes"/>
      <point x="203" y="700"/>
      <point x="110" y="579"/>
      <point x="110" y="345" type="curve" smooth="yes"/>
      <point x="110" y="111"/>
      <point x="202" y="-10"/>
    </contour>
  </outline>
</glyph>
<glyph name="Ohm" format="1">
  <advance width="831"/>
  <unicode hex="2126"/>
  <outline>
    <contour>
      <point x="56" y="0" type="line"/>
      <point x="339" y="0" type="line"/>
      <point x="339" y="148" type="line"/>
      <point x="270" y="198"/>
      <point x="219" y="269"/>
      <point x="219" y="378" type="curve" smooth="yes"/>
      <point x="219" y="384" type="line" smooth="yes"/>
      <point x="219" y="511"/>
      <point x="296" y="580"/>
      <point x="415" y="580" type="curve" smooth="yes"/>
      <point x="534" y="580"/>
      <point x="611" y="511"/>
      <point x="611" y="384" type="curve" smooth="yes"/>
      <point x="611" y="378" type="line" smooth="yes"/>
      <point x="611" y="269"/>
      <point x="560" y="198"/>
      <point x="491" y="148" type="curve"/>
      <point x="491" y="0" type="line"/>
      <point x="774" y="0" type="line"/>
      <point x="774" y="109" type="line"/>
      <point x="604" y="109" type="line"/>
      <point x="604" y="147" type="line"/>
      <point x="717" y="179"/>
      <point x="782" y="262"/>
      <point x="782" y="383" type="curve" smooth="yes"/>
      <point x="782" y="568"/>
      <point x="629" y="700"/>
      <point x="415" y="700" type="curve" smooth="yes"/>
      <point x="201" y="700"/>
      <point x="48" y="568"/>
      <point x="48" y="383" type="curve" smooth="yes"/>
      <point x="48" y="262"/>
      <point x="113" y="179"/>
      <point x="226" y="147" type="curve"/>
      <point x="226" y="109" type="line"/>
      <point x="56" y="109" type="line"/>
    </contour>
  </outline>
</glyph>
<glyph name="product" format="1">
  <advance width="868"/>
  <unicode hex="220F"/>
  <outline>
    <contour>
      <point x="580" y="0" type="line"/>
      <point x="743" y="0" type="line"/>
      <point x="743" y="578" type="line"/>
      <point x="836" y="578" type="line"/>
      <point x="836" y="690" type="line"/>
      <point x="32" y="690" type="line"/>
      <point x="32" y="578" type="line"/>
      <point x="125" y="578" type="line"/>
      <point x="125" y="0" type="line"/>
      <point x="288" y="0" type="line"/>
      <point x="288" y="578" type="line"/>
      <point x="580" y="578" type="line"/>
    </contour>
  </outline>
</glyph>
<glyph name="divisionslash" format="1">
  <advance width="532"/>
  <unicode hex="2215"/>
  <outline>
    <contour>
      <point x="5" y="0" type="line"/>
      <point x="137" y="0" type="line"/>
      <point x="527" y="690" type="line"/>
      <point x="395" y="690" type="line"/>
    </contour>
  </outline>
</glyph>
<glyph name="integral" format="1">
  <advance width="376"/>
  <unicode hex="222B"/>
  <outline>
    <contour>
      <point x="35" y="0" type="line"/>
      <point x="212" y="0" type="line" smooth="yes"/>
      <point x="241" y="0"/>
      <point x="256" y="15"/>
      <point x="256" y="44" type="curve" smooth="yes"/>
      <point x="256" y="578" type="line"/>
      <point x="341" y="578" type="line"/>
      <point x="341" y="690" type="line"/>
      <point x="165" y="690" type="line" smooth="yes"/>
      <point x="136" y="690"/>
      <point x="121" y="675"/>
      <point x="121" y="646" type="curve" smooth="yes"/>
      <point x="121" y="112" type="line"/>
      <point x="35" y="112" type="line"/>
    </contour>
  </outline>
</glyph>
<glyph name="notequal" format="1">
  <advance width="532"/>
  <unicode hex="2260"/>
  <outline>
    <contour>
      <point x="110" y="95" type="line"/>
      <point x="216" y="95" type="line"/>
      <point x="423" y="579" type="line"/>
      <point x="317" y="579" type="line"/>
    </contour>
    <contour>
      <point x="26" y="371" type="line"/>
      <point x="506" y="371" type="line"/>
      <point x="506" y="479" type="line"/>
      <point x="26" y="479" type="line"/>
    </contour>
    <contour>
      <point x="26" y="195" type="line"/>
      <point x="506" y="195" type="line"/>
      <point x="506" y="303" type="line"/>
      <point x="26" y="303" type="line"/>
    </contour>
  </outline>
</glyph>
<glyph name="lessequal" format="1">
  <advance width="532"/>
  <unicode hex="2264"/>
  <outline>
    <contour>
      <point x="503" y="165" type="line"/>
      <point x="503" y="280" type="line"/>
      <point x="140" y="377" type="line"/>
      <point x="140" y="415" type="line"/>
      <point x="503" y="512" type="line"/>
      <point x="503" y="626" type="line"/>
      <point x="24" y="483" type="line"/>
      <point x="24" y="308" type="line"/>
    </contour>
    <contour>
      <point x="24" y="0" type="line"/>
      <point x="503" y="0" type="line"/>
      <point x="503" y="108" type="line"/>
      <point x="24" y="108" type="line"/>
    </contour>
  </outline>
</glyph>
<glyph name="greaterequal" format="1">
  <advance width="532"/>
  <unicode hex="2265"/>
  <outline>
    <contour>
      <point x="29" y="165" type="line"/>
      <point x="508" y="308" type="line"/>
      <point x="508" y="483" type="line"/>
      <point x="29" y="626" type="line"/>
      <point x="29" y="512" type="line"/>
      <point x="392" y="415" type="line"/>
      <point x="392" y="377" type="line"/>
      <point x="29" y="280" type="line"/>
    </contour>
    <contour>
      <point x="29" y="0" type="line"/>
      <point x="508" y="0" type="line"/>
      <point x="508" y="108" type="line"/>
      <point x="29" y="108" type="line"/>
    </contour>
  </outline>
</glyph>
<glyph name="personalComputer" format="1">
  <advance width="1028"/>
  <unicode hex="1F4BB"/>
  <outline>
    <contour>
      <point x="670" y="0" type="line"/>
      <point x="821" y="0" type="line"/>
      <point x="1022" y="690" type="line"/>
      <point x="871" y="690" type="line"/>
    </contour>
    <contour>
      <point x="58" y="0" type="line"/>
      <point x="226" y="0" type="line"/>
      <point x="226" y="161" type="line"/>
      <point x="58" y="161" type="line"/>
    </contour>
    <contour>
      <point x="58" y="373" type="line"/>
      <point x="226" y="373" type="line"/>
      <point x="226" y="534" type="line"/>
      <point x="58" y="534" type="line"/>
    </contour>
    <contour>
      <point x="340" y="0" type="line"/>
      <point x="491" y="0" type="line"/>
      <point x="692" y="690" type="line"/>
      <point x="541" y="690" type="line"/>
    </contour>
  </outline>
</glyph>
<glyph name="A.ss03" format="1">
  <advance width="746"/>
  <outline>
    <contour>
      <point x="12" y="0" type="line"/>
      <point x="175" y="0" type="line"/>
      <point x="350" y="563" type="line"/>
      <point x="388" y="563" type="line"/>
      <point x="564" y="0" type="line"/>
      <point x="734" y="0" type="line"/>
      <point x="520" y="690" type="line"/>
      <point x="226" y="690" type="line"/>
    </contour>
    <contour>
      <point x="166" y="150" type="line"/>
      <point x="563" y="150" type="line"/>
      <point x="561" y="258" type="line"/>
      <point x="169" y="258" type="line"/>
    </contour>
    <contour>
      <point x="734" y="0" type="move" name="ogonek"/>
    </contour>
    <contour>
      <point x="369" y="690" type="move" name="top"/>
    </contour>
  </outline>
</glyph>
<glyph name="D.ss03" format="1">
  <advance width="810"/>
  <outline>
    <contour>
      <point x="81" y="0" type="line"/>
      <point x="409" y="0" type="line" smooth="yes"/>
      <point x="639" y="0"/>
      <point x="765" y="122"/>
      <point x="765" y="345" type="curve" smooth="yes"/>
      <point x="765" y="568"/>
      <point x="639" y="690"/>
      <point x="409" y="690" type="curve" smooth="yes"/>
      <point x="81" y="690" type="line"/>
    </contour>
    <contour>
      <point x="398" y="112" type="curve" smooth="yes"/>
      <point x="244" y="112" type="line"/>
      <point x="244" y="578" type="line"/>
      <point x="398" y="578" type="line" smooth="yes"/>
      <point x="533" y="578"/>
      <point x="594" y="506"/>
      <point x="594" y="348" type="curve" smooth="yes"/>
      <point x="594" y="342" type="line" smooth="yes"/>
      <point x="594" y="184"/>
      <point x="533" y="112"/>
    </contour>
  </outline>
</glyph>
<glyph name="E.ss03" format="1">
  <advance width="710"/>
  <outline>
    <contour>
      <point x="519" y="483" type="line"/>
      <point x="652" y="483" type="line"/>
      <point x="652" y="690" type="line"/>
      <point x="82" y="690" type="line"/>
      <point x="82" y="0" type="line"/>
      <point x="656" y="0" type="line"/>
      <point x="656" y="211" type="line"/>
      <point x="523" y="211" type="line"/>
      <point x="523" y="112" type="line"/>
      <point x="245" y="112" type="line"/>
      <point x="245" y="300" type="line"/>
      <point x="533" y="300" type="line"/>
      <point x="533" y="404" type="line"/>
      <point x="245" y="404" type="line"/>
      <point x="245" y="578" type="line"/>
      <point x="519" y="578" type="line"/>
    </contour>
    <contour>
      <point x="656" y="0" type="move" name="ogonek"/>
    </contour>
    <contour>
      <point x="368" y="690" type="move" name="top"/>
    </contour>
  </outline>
</glyph>
<glyph name="Germandbls.ss03" format="1">
  <advance width="761"/>
  <outline>
    <contour>
      <point x="79" y="0" type="line"/>
      <point x="242" y="0" type="line"/>
      <point x="242" y="578" type="line"/>
      <point x="508" y="578" type="line"/>
      <point x="371" y="413" type="line"/>
      <point x="371" y="309" type="line"/>
      <point x="437" y="309" type="line" smooth="yes"/>
      <point x="514" y="309"/>
      <point x="551" y="278"/>
      <point x="551" y="211" type="curve" smooth="yes"/>
      <point x="551" y="209" type="line" smooth="yes"/>
      <point x="551" y="143"/>
      <point x="514" y="112"/>
      <point x="437" y="112" type="curve" smooth="yes"/>
      <point x="311" y="112" type="line"/>
      <point x="311" y="0" type="line"/>
      <point x="448" y="0" type="line" smooth="yes"/>
      <point x="623" y="0"/>
      <point x="718" y="74"/>
      <point x="718" y="210" type="curve" smooth="yes"/>
      <point x="718" y="344"/>
      <point x="625" y="413"/>
      <point x="448" y="413" type="curve" smooth="yes"/>
      <point x="418" y="413" type="line"/>
      <point x="497" y="338" type="line"/>
      <point x="694" y="578" type="line"/>
      <point x="694" y="690" type="line"/>
      <point x="79" y="690" type="line"/>
    </contour>
  </outline>
</glyph>
<glyph name="H.ss03" format="1">
  <advance width="796"/>
  <outline>
    <contour>
      <point x="552" y="0" type="line"/>
      <point x="715" y="0" type="line"/>
      <point x="715" y="690" type="line"/>
      <point x="552" y="690" type="line"/>
    </contour>
    <contour>
      <point x="81" y="0" type="line"/>
      <point x="244" y="0" type="line"/>
      <point x="244" y="690" type="line"/>
      <point x="81" y="690" type="line"/>
    </contour>
    <contour>
      <point x="198" y="298" type="line"/>
      <point x="597" y="298" type="line"/>
      <point x="597" y="406" type="line"/>
      <point x="198" y="406" type="line"/>
    </contour>
  </outline>
</glyph>
<glyph name="Jacute" format="1">
  <advance width="694"/>
  <outline>
    <component base="J"/>
    <component base="acutecomb.case" xOffset="232" yOffset="40"/>
    <contour>
      <point x="432" y="690" type="move" name="top"/>
    </contour>
  </outline>
</glyph>
<glyph name="R.ss03" format="1">
  <advance width="764"/>
  <outline>
    <contour>
      <point x="81" y="0" type="line"/>
      <point x="244" y="0" type="line"/>
      <point x="244" y="290" type="line"/>
      <point x="418" y="290" type="line" smooth="yes"/>
      <point x="477" y="290"/>
      <point x="504" y="261"/>
      <point x="504" y="201" type="curve" smooth="yes"/>
      <point x="504" y="0" type="line"/>
      <point x="740" y="0" type="line"/>
      <point x="740" y="112" type="line"/>
      <point x="664" y="112" type="line"/>
      <point x="664" y="194" type="line" smooth="yes"/>
      <point x="664" y="275"/>
      <point x="625" y="315"/>
      <point x="542" y="321" type="curve"/>
      <point x="542" y="359" type="line"/>
      <point x="637" y="366"/>
      <point x="688" y="416"/>
      <point x="688" y="502" type="curve" smooth="yes"/>
      <point x="688" y="617"/>
      <point x="594" y="690"/>
      <point x="446" y="690" type="curve" smooth="yes"/>
      <point x="81" y="690" type="line"/>
    </contour>
    <contour>
      <point x="435" y="394" type="curve" smooth="yes"/>
      <point x="244" y="394" type="line"/>
      <point x="244" y="578" type="line"/>
      <point x="435" y="578" type="line" smooth="yes"/>
      <point x="494" y="578"/>
      <point x="521" y="550"/>
      <point x="521" y="489" type="curve" smooth="yes"/>
      <point x="521" y="483" type="line" smooth="yes"/>
      <point x="521" y="423"/>
      <point x="494" y="394"/>
    </contour>
  </outline>
</glyph>
<glyph name="Thorn.ss03" format="1">
  <advance width="723"/>
  <note>
Thorn
</note>
  <outline>
    <contour>
      <point x="173" y="145" type="line"/>
      <point x="436" y="145" type="line" smooth="yes"/>
      <point x="598" y="145"/>
      <point x="686" y="219"/>
      <point x="686" y="352" type="curve" smooth="yes"/>
      <point x="686" y="485"/>
      <point x="598" y="559"/>
      <point x="436" y="559" type="curve" smooth="yes"/>
      <point x="173" y="559" type="line"/>
      <point x="173" y="454" type="line"/>
      <point x="423" y="454" type="line" smooth="yes"/>
      <point x="489" y="454"/>
      <point x="520" y="422"/>
      <point x="520" y="355" type="curve" smooth="yes"/>
      <point x="520" y="349" type="line" smooth="yes"/>
      <point x="520" y="282"/>
      <point x="489" y="250"/>
      <point x="423" y="250" type="curve" smooth="yes"/>
      <point x="173" y="250" type="line"/>
    </contour>
    <contour>
      <point x="80" y="0" type="line"/>
      <point x="242" y="0" type="line"/>
      <point x="242" y="690" type="line"/>
      <point x="80" y="690" type="line"/>
    </contour>
  </outline>
</glyph>
<glyph name=".notdef" format="1">
  <advance width="792"/>
  <outline>
    <contour>
      <point x="89" y="0" type="line"/>
      <point x="703" y="0" type="line"/>
      <point x="703" y="690" type="line"/>
      <point x="89" y="690" type="line"/>
    </contour>
    <contour>
      <point x="205" y="108" type="line"/>
      <point x="205" y="582" type="line"/>
      <point x="587" y="582" type="line"/>
      <point x="587" y="108" type="line"/>
    </contour>
  </outline>
</glyph>
<glyph name="exclamdown.case" format="1">
  <advance width="298"/>
  <outline>
    <contour>
      <point x="194" y="486" type="line"/>
      <point x="104" y="486" type="line"/>
      <point x="64" y="112" type="line"/>
      <point x="64" y="0" type="line"/>
      <point x="234" y="0" type="line"/>
      <point x="234" y="112" type="line"/>
    </contour>
    <contour>
      <point x="233" y="690" type="line"/>
      <point x="65" y="690" type="line"/>
      <point x="65" y="529" type="line"/>
      <point x="233" y="529" type="line"/>
    </contour>
  </outline>
</glyph>
<glyph name="gravecomb.case" format="1">
  <advance width="0"/>
  <note>
grave
</note>
  <outline>
    <component base="gravecomb" yOffset="116" identifier="2133124E"/>
    <contour>
      <point x="200" y="650" type="move" name="_top"/>
    </contour>
  </outline>
</glyph>
